<?xml version="1.0" standalone="no"?>
<!DOCTYPE svg PUBLIC "-//W3C//DTD SVG 20010904//EN"
 "http://www.w3.org/TR/2001/REC-SVG-20010904/DTD/svg10.dtd">
<svg version="1.0" xmlns="http://www.w3.org/2000/svg"
 width="4501.000000pt" height="3830.000000pt" viewBox="0 0 4501.000000 3830.000000"
 preserveAspectRatio="xMidYMid meet">

<g transform="translate(0.000000,3830.000000) scale(0.100000,-0.100000)"
fill="#000000" stroke="none">
<path d="M21835 37690 c-1595 -72 -3065 -342 -4525 -830 -762 -254 -1421 -529
-2155 -900 -1333 -673 -2512 -1487 -3650 -2521 -207 -187 -812 -789 -997 -990
-1978 -2154 -3301 -4673 -3932 -7486 -523 -2331 -523 -4835 0 -7167 468 -2085
1318 -4012 2542 -5761 236 -336 637 -858 885 -1150 l85 -100 -4162 -5 -4161
-5 -81 -22 c-220 -60 -386 -150 -535 -290 -147 -139 -271 -347 -326 -548 l-28
-100 -3 -3335 c-2 -3678 -7 -3399 60 -3588 138 -391 441 -656 868 -758 71 -18
267 -19 4158 -21 l4082 -3 0 -550 c0 -365 4 -567 11 -602 34 -159 153 -291
307 -338 64 -20 141 -20 12227 -20 11909 0 12164 0 12224 19 159 49 280 185
311 350 6 32 10 269 10 597 l0 544 4083 3 c3877 2 4086 3 4155 20 257 63 437
163 608 339 153 157 259 358 303 575 l21 102 -3 3333 -2 3333 -22 75 c-69 243
-174 424 -332 573 -149 140 -315 231 -535 290 l-81 22 -4162 5 -4162 5 80 95
c533 629 1068 1377 1506 2104 1241 2063 1996 4342 2237 6756 92 912 105 1875
41 2810 -315 4543 -2518 8722 -6115 11601 -1137 911 -2412 1674 -3750 2246
-1247 533 -2598 917 -3932 1117 -542 82 -968 126 -1613 166 -220 14 -1293 21
-1540 10z m1485 -300 c945 -53 1788 -167 2645 -356 3144 -694 6021 -2338 8241
-4709 2294 -2449 3771 -5572 4194 -8865 93 -729 130 -1314 130 -2080 0 -766
-37 -1351 -130 -2080 -392 -3053 -1698 -5981 -3716 -8330 l-159 -185 -332 -3
c-183 -1 -333 0 -333 3 0 3 57 68 127 143 175 191 439 498 638 747 1153 1435
2045 3072 2625 4815 397 1194 648 2439 744 3700 34 434 40 630 40 1190 0 786
-30 1271 -124 2010 -300 2339 -1158 4622 -2482 6603 -1419 2123 -3360 3885
-5609 5090 -2780 1489 -5944 2091 -9094 1731 -4812 -551 -9100 -3338 -11597
-7539 -1201 -2022 -1931 -4331 -2113 -6685 -35 -458 -40 -607 -40 -1210 0
-603 5 -752 40 -1210 181 -2341 900 -4626 2093 -6650 515 -874 1145 -1736
1808 -2473 93 -104 184 -206 203 -228 l34 -39 -334 0 -334 1 -172 202 c-582
684 -1095 1395 -1551 2153 -1737 2883 -2510 6206 -2231 9584 115 1395 414
2774 886 4080 1509 4180 4705 7568 8791 9322 1793 769 3687 1195 5687 1278
261 11 1176 5 1425 -10z m-155 -780 c282 -14 496 -28 745 -51 2196 -200 4325
-880 6235 -1992 2400 -1396 4374 -3416 5719 -5852 1085 -1964 1729 -4190 1856
-6415 5 -96 12 -219 15 -272 3 -54 4 -98 1 -98 -4 0 -3147 3197 -3322 3379
l-81 84 -394 -185 c-366 -173 -395 -185 -410 -170 -9 10 -758 906 -1665 1992
-907 1086 -1719 2059 -1805 2161 l-156 187 -1478 -1617 c-813 -889 -1484
-1616 -1491 -1616 -8 0 -296 200 -641 444 -553 392 -629 442 -645 432 -17 -11
-1903 -1645 -1952 -1692 -19 -17 -18 -19 31 -76 27 -32 105 -128 173 -213 148
-185 441 -481 557 -563 167 -119 310 -188 475 -232 461 -122 1172 -132 1928
-25 301 42 491 54 804 47 548 -12 959 -101 1336 -291 601 -302 1298 -885 1705
-1427 225 -299 385 -775 360 -1068 -16 -182 -79 -338 -183 -452 -60 -65 -90
-83 -192 -116 -65 -21 -81 -45 -109 -155 -37 -143 -80 -565 -129 -1260 l-17
-247 498 -386 499 -387 41 28 c167 110 831 588 1192 858 687 513 1170 907
1484 1211 117 113 122 117 89 65 -19 -30 -295 -455 -612 -944 -318 -489 -580
-895 -583 -903 -33 -86 552 227 1332 713 99 62 181 111 183 110 7 -7 -44 -130
-88 -215 -136 -258 -367 -542 -715 -878 l-180 -174 60 22 c33 12 123 52 200
88 646 309 1309 860 1818 1514 112 143 266 361 350 497 l72 115 3 -39 c2 -22
-2 -77 -8 -123 -94 -708 -826 -1726 -2002 -2787 -104 -93 -188 -170 -188 -172
0 -5 252 132 430 234 603 344 1207 751 1704 1148 279 223 426 354 680 604 245
241 239 240 165 43 -168 -452 -572 -1009 -1048 -1448 -71 -66 -128 -121 -127
-123 9 -8 311 134 486 228 555 298 1010 642 1351 1022 44 48 79 84 79 79 0
-18 -51 -340 -80 -509 -440 -2525 -1529 -4914 -3159 -6932 -250 -309 -575
-681 -800 -913 l-114 -117 -2361 4 c-1465 2 -2450 8 -2596 15 -626 28 -926 36
-1530 38 -592 2 -656 1 -672 -14 -10 -9 -18 -22 -18 -30 0 -10 -38 -13 -194
-13 -180 0 -194 1 -199 19 -3 14 -17 20 -58 25 -95 11 -777 17 -979 9 -189 -8
-195 -9 -205 -30 -9 -22 -14 -23 -151 -23 -126 0 -143 2 -158 19 -16 18 -32
19 -163 19 -129 0 -147 -2 -164 -19 -26 -26 -146 -28 -164 -3 -14 20 35 19
-1225 39 -1285 20 -1275 20 -1268 68 3 19 11 23 63 28 33 4 292 7 575 8 283 1
655 6 825 11 655 19 990 33 1001 42 6 4 14 30 18 57 6 48 23 71 61 86 11 4
598 11 1305 16 707 5 1530 13 1830 19 300 6 1656 13 3015 16 1689 4 2474 9
2482 16 18 15 16 63 -3 82 -14 14 -73 16 -492 16 -799 1 -1405 10 -1419 22
-16 13 -16 48 0 69 7 9 28 24 47 35 34 18 68 19 829 20 l795 1 14 21 c19 29 8
70 -22 82 -13 4 -362 12 -777 16 -415 4 -764 10 -776 15 -29 11 -40 53 -21 80
13 20 23 21 293 25 154 2 521 8 815 14 529 9 535 10 552 31 22 26 22 39 4 65
-14 18 -37 19 -788 24 -737 5 -775 6 -812 24 -49 25 -66 64 -66 153 0 81 17
225 31 270 17 53 52 73 124 73 49 0 68 5 90 22 61 48 71 153 30 309 -132 496
-155 595 -179 789 -28 222 -36 435 -36 915 0 1008 43 1458 189 1995 58 215 65
253 65 390 0 143 -14 212 -70 329 -47 100 -99 172 -239 326 -194 214 -294 356
-386 550 -117 244 -181 553 -210 1010 -27 423 19 1188 97 1608 64 344 75 416
88 588 16 214 22 225 117 223 35 -1 98 -5 140 -9 85 -8 113 1 164 55 27 28 30
38 29 93 0 60 -6 73 -158 372 -179 349 -211 403 -318 530 -83 98 -145 155
-283 260 -134 102 -289 263 -373 388 -99 145 -169 226 -272 311 -327 272 -764
450 -1265 515 -251 33 -834 45 -1035 21 -52 -6 -230 -38 -395 -70 -324 -64
-445 -80 -584 -80 -94 0 -251 13 -366 31 -160 25 -728 131 -825 154 -275 67
-576 195 -777 331 -169 114 -277 213 -428 389 -276 323 -536 518 -864 650
-260 104 -470 143 -841 155 -347 11 -439 29 -615 118 -162 81 -257 167 -418
378 -58 77 -154 193 -212 259 -272 305 -330 378 -404 517 -71 131 -103 230
-109 339 -4 88 -2 101 21 153 20 43 37 63 74 86 75 48 112 55 273 50 444 -14
595 -2 813 66 157 49 246 71 387 94 119 19 210 25 735 50 531 25 855 73 1243
185 647 185 1186 462 1697 870 578 462 1097 1108 1510 1884 95 179 155 346
162 456 4 61 2 74 -19 105 -26 39 -98 80 -141 80 -71 0 -132 -64 -243 -253
-112 -191 -261 -416 -280 -424 -9 -3 -24 -1 -33 4 -30 20 -16 97 44 258 180
476 222 651 181 749 -29 70 -127 105 -199 71 -44 -21 -94 -84 -187 -240 -111
-183 -180 -282 -266 -379 -134 -151 -182 -179 -230 -131 -32 32 -35 -5 36 490
74 512 76 643 14 751 -27 48 -57 70 -113 83 -57 12 -111 -2 -143 -38 -40 -44
-74 -167 -93 -332 -23 -198 -59 -369 -111 -530 -76 -231 -236 -531 -315 -592
-32 -24 -89 -51 -94 -45 -2 2 10 93 26 203 93 638 107 840 70 988 -25 97 -42
129 -87 163 -67 51 -202 43 -242 -14 -36 -51 -44 -97 -52 -283 -13 -289 -55
-508 -149 -781 -55 -158 -133 -338 -171 -393 -58 -84 -162 -141 -215 -117 -60
27 -75 82 -139 512 -74 490 -115 670 -182 803 -67 134 -160 228 -241 243 -43
8 -110 -17 -146 -54 -52 -54 -51 -80 13 -482 38 -237 50 -362 50 -514 0 -328
-59 -599 -171 -788 -44 -75 -70 -98 -110 -98 -40 0 -58 9 -73 39 -14 27 -45
191 -97 521 -56 354 -130 684 -224 999 -53 178 -71 217 -119 258 -92 82 -259
27 -282 -93 -14 -75 9 -256 121 -939 48 -295 44 -622 -12 -803 -41 -135 -181
-207 -300 -153 -56 26 -97 70 -241 256 -140 183 -346 487 -485 718 -124 204
-197 305 -274 378 -89 82 -165 92 -238 28 -111 -98 -63 -263 235 -814 366
-677 491 -1019 491 -1350 1 -198 -48 -409 -108 -469 -32 -33 -78 -34 -115 -3
-61 50 -184 281 -320 602 -106 250 -175 382 -269 520 -113 167 -308 361 -403
400 -54 23 -113 19 -163 -10 -72 -43 -85 -88 -68 -240 6 -61 5 -76 -13 -110
-11 -22 -100 -128 -197 -235 -197 -216 -254 -291 -314 -413 -75 -152 -105
-271 -145 -564 -24 -176 -92 -283 -217 -343 -88 -41 -146 -45 -270 -19 -138
30 -285 30 -429 -1 -187 -40 -304 -15 -404 86 -82 81 -112 174 -135 409 -13
143 -31 210 -86 322 -54 109 -145 211 -307 344 -56 46 -125 105 -152 131 -45
44 -48 50 -43 85 6 37 21 60 110 169 68 84 212 329 231 393 21 72 21 157 -2
201 -33 65 -129 93 -198 57 -31 -16 -140 -151 -224 -277 -76 -114 -171 -231
-213 -261 -54 -39 -99 -39 -138 0 -16 16 -29 39 -29 51 0 12 21 84 46 159 55
163 56 203 3 257 -18 18 -48 39 -66 45 -58 19 -94 -2 -238 -140 -165 -158
-255 -222 -322 -228 -61 -6 -92 16 -128 93 -58 122 -69 190 -69 424 0 239 7
319 66 729 35 245 39 289 28 323 -33 112 -175 141 -249 51 -34 -41 -66 -133
-157 -448 -64 -223 -114 -355 -165 -440 -51 -86 -136 -184 -174 -202 -31 -15
-35 -14 -71 3 -49 25 -70 67 -94 193 -18 92 -20 145 -20 554 0 273 -4 466 -10
488 -20 73 -106 120 -180 99 -44 -12 -96 -63 -125 -121 -35 -67 -99 -420 -135
-745 -42 -365 -74 -444 -184 -444 -48 0 -87 36 -159 145 -147 223 -262 511
-331 830 -74 338 -97 405 -156 459 -21 18 -52 37 -70 41 -71 16 -147 -21 -180
-86 -53 -102 -60 -246 -35 -632 21 -321 22 -371 1 -402 -25 -38 -75 -65 -122
-65 -57 0 -91 37 -154 165 -79 160 -98 239 -155 655 -36 265 -75 332 -189 332
-106 0 -159 -71 -186 -246 -16 -110 1 -276 60 -586 77 -401 74 -378 59 -396
-7 -8 -24 -14 -38 -12 -52 6 -211 283 -284 493 -19 55 -48 161 -66 235 -58
249 -71 279 -137 300 -58 20 -119 5 -164 -40 -46 -46 -63 -96 -90 -255 -40
-247 -51 -515 -30 -786 64 -813 348 -1468 868 -2001 237 -243 435 -401 697
-557 250 -148 447 -239 725 -331 369 -123 617 -172 1792 -350 728 -111 761
-117 794 -143 35 -27 28 -58 -40 -168 -72 -115 -84 -154 -61 -202 9 -20 28
-43 41 -52 59 -38 81 -123 48 -188 -9 -18 -78 -95 -154 -172 -369 -378 -576
-681 -684 -1005 -71 -213 -81 -284 -79 -575 2 -184 -2 -289 -12 -357 -37 -245
-1 -418 110 -532 84 -86 173 -117 350 -119 l122 -2 47 -40 c130 -112 165 -137
240 -174 200 -101 410 -108 635 -21 44 17 106 49 138 70 68 47 113 52 137 18
23 -33 20 -54 -28 -211 -62 -199 -77 -281 -83 -447 -4 -108 -1 -168 11 -235
27 -158 41 -190 105 -253 55 -54 59 -61 76 -136 24 -110 105 -264 220 -418
117 -158 126 -162 197 -89 28 28 58 51 67 51 43 -1 42 20 42 -721 -1 -387 3
-767 9 -844 51 -720 280 -1186 763 -1552 141 -107 162 -144 186 -328 55 -410
269 -907 718 -1668 444 -751 532 -908 559 -1002 21 -72 24 -203 5 -260 -7 -22
-39 -94 -72 -160 -101 -209 -131 -327 -132 -520 -1 -101 4 -155 23 -245 53
-252 22 -611 -111 -1273 -94 -471 -253 -971 -410 -1290 -47 -95 -65 -122 -144
-212 -127 -146 -167 -214 -181 -310 -6 -41 -16 -60 -56 -104 -74 -81 -95 -112
-109 -159 -15 -52 -61 -99 -109 -112 -22 -6 -816 -6 -2105 -2 -1717 7 -2074 6
-2092 -5 -26 -16 -30 -49 -8 -80 l14 -21 1463 -5 c805 -3 1632 -10 1838 -16
206 -6 478 -12 605 -15 202 -5 231 -7 242 -23 19 -25 16 -60 -8 -84 -18 -18
-29 -20 -64 -16 -24 4 -127 2 -231 -3 -209 -10 -219 -14 -217 -76 2 -53 43
-91 113 -103 30 -5 144 -15 254 -21 109 -6 208 -15 220 -20 12 -5 -1776 -9
-4044 -9 l-4065 -1 -161 173 c-1243 1329 -2229 2840 -2929 4487 -274 646 -510
1331 -690 2003 -60 226 -145 578 -145 602 0 8 17 26 38 39 20 13 138 88 262
167 885 560 1822 1232 2445 1753 327 273 719 641 895 839 41 47 76 84 78 82 2
-1 -18 -61 -44 -131 -315 -875 -829 -1615 -1439 -2074 -77 -58 -76 -58 105 7
207 74 384 149 595 252 445 216 775 437 1049 700 43 42 75 69 71 61 -5 -8 -61
-89 -125 -180 -384 -542 -808 -989 -1173 -1238 -63 -43 -83 -61 -71 -66 35
-13 274 -18 382 -7 359 37 666 156 941 364 l104 79 -49 -89 c-319 -586 -724
-1020 -1074 -1149 l-35 -13 55 0 c166 -2 523 61 768 135 299 91 619 253 839
425 35 27 65 49 67 49 2 0 61 -41 131 -91 332 -238 845 -561 1164 -734 357
-193 672 -318 902 -360 179 -32 180 -32 -98 176 -719 539 -1268 1017 -1519
1324 -46 55 -126 176 -121 182 2 1 62 -29 133 -68 1166 -638 2351 -1153 3029
-1318 165 -40 408 -79 390 -63 -5 5 -98 60 -205 122 -542 315 -1202 740 -1695
1092 -802 573 -1343 1058 -1640 1473 -75 104 -139 219 -109 194 568 -474 1200
-929 1844 -1326 1445 -891 2827 -1413 4015 -1517 226 -20 394 -27 375 -16 -8
4 -130 54 -270 110 -1665 665 -2990 1340 -3529 1798 -62 52 -799 752 -1852
1757 -81 77 -145 142 -143 144 5 6 317 -148 469 -231 339 -186 698 -420 1089
-711 396 -294 716 -484 1366 -811 497 -250 982 -476 1620 -753 342 -149 791
-336 795 -331 3 2 -1952 1823 -2288 2131 l-52 48 90 -57 c1114 -707 2160
-1319 2951 -1725 260 -134 258 -134 189 -19 -59 97 -188 241 -399 445 -225
216 -255 255 -344 445 -134 285 -226 622 -269 985 -15 125 -18 237 -18 662 0
339 -3 509 -10 504 -5 -5 -104 -85 -218 -180 -115 -94 -213 -171 -218 -171 -6
0 -5544 4835 -5705 4982 -21 19 -22 17 -2459 -2437 -1340 -1350 -2440 -2455
-2443 -2455 -8 0 6 702 18 920 51 930 174 1802 376 2670 852 3666 3067 6917
6185 9077 2065 1431 4425 2321 6914 2607 359 41 701 68 1160 89 161 8 1074 6
1250 -3z m-9049 -5242 c9 -18 31 -88 50 -158 89 -337 197 -563 379 -790 138
-172 168 -288 127 -491 -12 -57 -31 -178 -42 -269 -37 -304 -81 -446 -146
-477 -67 -33 -102 7 -159 177 -68 208 -98 367 -140 745 -39 353 -62 459 -126
587 -29 58 -30 82 -3 92 39 15 81 -37 136 -168 56 -135 54 -127 -61 424 -29
141 -51 286 -51 343 0 34 14 28 36 -15z m11395 -374 c-28 -111 -23 -195 18
-304 24 -64 108 -179 157 -217 l35 -26 22 21 c12 11 81 57 152 102 144 92 241
166 274 211 13 17 25 29 27 26 7 -7 -205 -507 -292 -687 -114 -235 -211 -401
-229 -393 -8 3 -15 8 -15 12 0 4 81 183 179 397 159 346 177 390 163 402 -9 6
-21 12 -27 12 -29 0 -178 -285 -300 -570 -84 -198 -165 -365 -228 -471 -68
-116 -170 -256 -174 -242 -7 20 66 183 187 418 120 232 180 384 198 500 6 33
9 61 7 63 -1 2 -17 -41 -36 -94 -18 -53 -47 -117 -64 -143 l-30 -46 -3 36 c-2
20 6 73 17 117 18 70 29 183 17 171 -3 -3 -14 -46 -25 -97 -49 -226 -168 -504
-326 -767 -86 -144 -331 -511 -347 -521 -7 -4 -8 9 -3 37 9 60 23 94 63 159
47 73 58 102 103 258 43 150 92 262 140 316 17 20 33 35 35 33 2 -2 -23 -70
-56 -152 -33 -82 -58 -150 -56 -153 28 -27 122 139 191 338 20 58 68 219 106
358 73 269 75 292 25 292 -32 0 -40 -12 -63 -111 -24 -100 -165 -466 -225
-586 -29 -58 -39 -89 -34 -106 5 -21 2 -24 -20 -24 -36 0 -66 -36 -99 -118
-34 -86 -139 -291 -165 -325 -18 -24 -20 -24 -20 -4 0 11 16 79 36 150 20 71
47 167 60 214 14 47 26 119 29 160 l5 75 -29 -60 c-16 -33 -59 -139 -95 -235
-86 -224 -143 -343 -211 -444 -61 -91 -122 -163 -110 -131 4 11 29 76 55 145
47 121 242 731 236 737 -1 2 -18 -7 -37 -20 -57 -38 -119 -170 -234 -507 -31
-91 -74 -203 -96 -250 -51 -108 -157 -278 -186 -297 -25 -16 -43 -10 -43 14 0
9 59 137 131 284 127 262 219 501 219 569 0 19 8 33 26 45 14 9 38 44 54 78
15 34 51 113 80 175 70 153 116 274 159 416 38 124 56 151 89 130 11 -7 17
-23 16 -45 -1 -55 -61 -259 -98 -331 -19 -38 -32 -68 -29 -68 16 0 95 65 107
88 7 15 16 69 19 119 4 51 16 118 26 148 22 63 78 144 117 170 26 16 26 16 19
-7 -7 -23 -39 -104 -90 -226 -15 -35 -25 -66 -23 -68 2 -2 51 83 108 189 174
322 406 714 418 703 2 -2 -1 -21 -7 -42z m-11890 -479 c128 -68 125 -55 139
-555 6 -223 13 -471 17 -552 l6 -147 -31 -30 c-63 -63 -130 -34 -279 122 -190
199 -280 379 -548 1089 -52 137 -95 252 -95 254 0 2 9 4 20 4 13 0 42 -31 89
-94 73 -99 112 -135 177 -162 55 -24 148 -22 206 3 72 33 78 52 78 250 l1 168
82 -160 82 -160 56 -30z m10118 178 c5 -21 12 -63 16 -94 3 -31 15 -72 26 -90
112 -192 113 -264 9 -543 -79 -215 -103 -329 -120 -589 -21 -324 -74 -496
-284 -930 -47 -97 -86 -185 -86 -195 -1 -14 -4 -13 -20 7 -11 13 -20 29 -20
37 0 8 45 123 101 257 130 313 200 523 186 560 -8 21 -55 33 -76 20 -9 -5 -22
-36 -29 -69 -30 -136 -98 -323 -167 -462 -81 -162 -229 -397 -245 -387 -25 15
-8 71 49 164 127 207 204 394 241 588 29 154 51 215 146 416 148 311 166 370
184 607 6 80 16 186 22 235 6 50 12 178 13 285 3 237 1 220 25 220 14 0 22
-10 29 -37z m-8494 -105 c81 -217 143 -308 253 -366 101 -53 219 -70 278 -39
15 8 64 66 109 128 72 100 86 114 114 117 19 2 33 -2 35 -10 2 -7 16 -78 31
-158 63 -327 125 -459 243 -519 92 -46 170 -36 324 40 103 52 137 59 159 33
21 -25 13 -73 -26 -164 -41 -96 -47 -137 -20 -156 23 -17 60 1 93 45 12 17 31
31 41 31 24 0 55 -35 48 -54 -4 -9 -52 -93 -108 -187 -173 -292 -282 -540
-252 -570 8 -8 37 32 101 133 50 79 117 174 148 212 53 64 58 68 70 51 28 -37
23 -50 -63 -173 -23 -33 -70 -111 -104 -173 -80 -147 -111 -193 -176 -255 -50
-48 -54 -56 -68 -129 -17 -89 -28 -107 -64 -103 -40 5 -52 40 -46 128 13 162
27 271 57 416 l30 152 -20 45 c-16 36 -32 52 -74 76 -171 98 -291 10 -382
-279 -80 -252 -69 -516 29 -715 19 -39 67 -106 105 -150 39 -44 84 -100 102
-124 l31 -44 -62 33 c-108 58 -185 165 -243 340 -43 128 -52 188 -52 340 0
123 4 161 27 253 41 167 120 344 218 488 57 85 72 129 67 201 -4 56 -8 64 -45
99 -51 47 -112 66 -165 50 -130 -39 -220 -227 -339 -698 -37 -149 -74 -284
-82 -300 -17 -31 -51 -65 -84 -82 -30 -15 -119 -14 -151 3 -64 34 -122 129
-147 243 -22 96 -30 113 -59 113 -13 0 -27 -7 -30 -16 -4 -9 7 -68 24 -132 17
-63 29 -116 27 -119 -9 -8 -71 74 -96 127 -24 51 -26 65 -26 190 1 168 39 675
66 875 12 83 23 189 26 236 6 89 3 98 -54 190 -16 26 -16 30 29 125 26 55 59
145 74 202 15 56 30 102 34 102 4 0 25 -46 45 -102z m9468 -148 c0 -165 -15
-244 -112 -571 -37 -129 -72 -250 -76 -269 -4 -19 -22 -51 -40 -71 -19 -21
-42 -65 -55 -105 -26 -77 -158 -360 -165 -353 -13 14 60 275 166 591 105 316
189 608 189 660 0 10 -4 18 -9 18 -15 0 -98 -85 -114 -116 -23 -44 -243 -908
-292 -1144 -34 -163 -92 -303 -188 -448 -80 -120 -129 -178 -145 -168 -21 13
-13 46 27 104 106 157 167 333 256 742 83 382 180 709 255 865 22 44 79 142
129 218 49 75 102 167 117 203 l29 65 14 -43 c9 -28 14 -90 14 -178z m-1892
-303 c18 -167 7 -460 -25 -627 -44 -233 -112 -437 -223 -670 -59 -125 -180
-350 -188 -350 -2 0 17 44 42 98 261 562 374 1058 361 1594 -4 164 -3 177 8
123 7 -33 18 -109 25 -168z m1198 59 c10 -12 3 -72 -29 -278 -80 -505 -150
-807 -244 -1051 -78 -202 -228 -477 -261 -477 -24 0 -18 24 30 120 137 273
207 505 325 1085 39 190 82 375 96 412 18 47 26 87 26 127 -1 33 1 63 4 68 8
13 41 9 53 -6z m269 -90 c2 -10 -19 -75 -47 -145 -62 -155 -102 -295 -175
-606 -106 -452 -138 -543 -274 -773 -38 -64 -79 -136 -91 -159 -24 -49 -36
-54 -45 -19 -7 30 -3 43 50 137 124 222 201 463 299 939 50 243 89 373 154
515 58 125 67 137 99 133 17 -2 28 -10 30 -22z m-11398 -240 c110 -265 206
-467 288 -603 33 -57 59 -103 57 -103 -2 0 -30 33 -63 73 -177 216 -310 490
-362 747 -21 103 -23 116 -15 109 2 -3 45 -103 95 -223z m13380 194 c8 -15 6
-22 -6 -32 -49 -39 -73 -74 -104 -154 l-35 -89 -3 62 c-3 70 14 118 67 191 34
46 64 54 81 22z m-2750 -244 c-34 -209 -56 -288 -107 -394 -34 -70 -61 -105
-50 -66 3 11 15 71 27 134 12 63 35 168 51 233 30 121 100 310 106 290 2 -6
-10 -95 -27 -197z m-8640 -93 c-16 -196 -37 -338 -71 -493 -58 -268 -59 -391
-4 -557 52 -155 106 -223 388 -486 75 -71 137 -132 137 -137 0 -48 -159 59
-311 210 -134 133 -222 268 -273 416 -52 155 -57 274 -17 400 38 119 47 178
107 681 6 50 39 121 51 110 3 -3 0 -68 -7 -144z m11145 40 c-10 -56 -94 -213
-114 -213 -24 0 -41 20 -41 48 0 39 74 184 116 227 l39 39 3 -34 c2 -18 1 -49
-3 -67z m-4180 49 c21 -21 25 -34 24 -76 -2 -40 5 -65 33 -121 44 -87 82 -206
98 -307 20 -123 9 -358 -24 -499 -32 -142 -77 -277 -111 -334 -33 -58 -145
-158 -145 -131 0 3 18 34 40 69 90 144 150 328 171 527 20 192 -12 435 -96
725 -24 82 -47 158 -50 167 -10 24 28 12 60 -20z m1089 -172 c0 -97 -7 -167
-23 -250 -64 -328 -166 -635 -292 -880 -51 -99 -139 -237 -139 -218 0 3 14 38
31 78 131 307 263 761 365 1252 46 221 59 225 58 18z m381 -98 c-45 -515 -124
-798 -299 -1067 -57 -87 -155 -209 -163 -202 -7 8 61 172 151 364 106 224 129
303 162 563 14 112 37 247 50 300 28 110 107 287 112 251 2 -12 -4 -106 -13
-209z m-695 75 c-22 -189 -79 -431 -149 -624 -59 -164 -103 -275 -107 -270 -5
5 88 466 117 582 46 183 138 452 147 426 2 -7 -1 -58 -8 -114z m479 -42 c3
-444 -167 -1014 -366 -1232 l-44 -48 32 64 c124 255 195 508 311 1109 32 168
55 266 59 255 4 -10 8 -77 8 -148z m-1119 94 c30 -34 87 -94 127 -133 109
-110 114 -136 88 -456 -24 -294 -58 -440 -138 -595 -39 -75 -105 -155 -127
-155 -5 0 2 30 16 68 117 303 162 453 183 605 35 253 -30 487 -191 680 -58 69
-23 58 42 -14z m3790 -249 c-8 -29 -21 -47 -43 -60 -29 -18 -113 -37 -122 -28
-7 6 74 129 124 187 l46 54 3 -56 c2 -31 -2 -75 -8 -97z m-5388 123 c16 -19
87 -178 163 -363 83 -201 95 -371 40 -537 -42 -126 -142 -274 -225 -333 l-29
-21 46 108 c105 249 118 312 83 398 -11 27 -13 28 -20 10 -4 -11 -13 -52 -19
-91 -7 -39 -21 -85 -31 -102 -19 -31 -77 -69 -88 -57 -3 3 4 45 16 93 31 125
17 157 -55 127 -62 -26 -65 -16 -10 39 39 39 68 82 105 158 28 57 54 116 58
132 l7 29 -29 -18 c-16 -9 -48 -41 -72 -71 -31 -39 -50 -54 -67 -54 -36 0 -32
29 15 130 38 82 47 121 34 154 -9 22 -132 -64 -218 -154 -89 -92 -119 -158
-158 -351 -28 -136 -31 -172 -30 -311 1 -178 2 -176 -79 -189 -28 -4 -57 -14
-66 -20 -25 -21 -43 -67 -51 -127 l-7 -57 -44 0 c-82 0 -79 30 14 164 78 112
135 313 135 477 0 194 49 283 343 623 165 192 202 231 217 231 4 0 14 -8 22
-17z m2044 -26 c-3 -12 -17 -110 -31 -217 -45 -343 -66 -471 -94 -584 -71
-279 -189 -475 -381 -628 -46 -38 -87 -68 -92 -68 -4 0 -8 9 -8 19 0 11 20 34
48 54 58 43 158 147 200 208 111 163 169 350 212 684 20 160 67 453 77 489 6
21 51 66 66 66 5 0 7 -10 3 -23z m-5028 -243 c151 -78 282 -205 350 -340 50
-100 64 -170 67 -354 2 -160 3 -169 42 -295 64 -210 64 -217 0 -146 -70 78
-85 123 -97 296 -21 289 -83 448 -239 608 -77 79 -181 157 -210 157 -11 0 -22
-8 -26 -19 -6 -21 8 -66 25 -76 25 -15 110 -127 104 -137 -4 -6 -23 -8 -46 -5
-26 4 -43 1 -53 -10 -18 -18 -18 -24 -3 -60 6 -15 15 -71 20 -123 9 -115 26
-444 23 -448 -1 -1 -23 46 -48 106 -108 252 -138 490 -96 742 17 99 43 140 90
140 15 0 59 -16 97 -36z m8157 -63 c-9 -69 -53 -103 -94 -75 -21 15 -26 39
-14 69 6 16 103 69 111 60 2 -2 1 -26 -3 -54z m-11543 -241 c36 -112 92 -254
141 -362 20 -43 34 -78 32 -78 -10 0 -88 126 -125 199 -70 140 -113 292 -124
441 l-6 75 25 -90 c14 -49 39 -133 57 -185z m6921 135 c90 -222 157 -376 242
-554 88 -185 109 -245 103 -302 -3 -30 -14 -13 -105 166 -121 239 -198 419
-263 615 -63 192 -66 203 -43 198 13 -2 33 -40 66 -123z m4425 -57 c18 -18 14
-56 -9 -79 -15 -15 -30 -19 -62 -17 -37 3 -42 6 -45 30 -6 54 79 103 116 66z
m-11792 -93 c26 -15 54 -43 68 -68 24 -41 60 -147 52 -154 -8 -8 -95 100 -135
166 -55 94 -55 97 15 56z m11161 -168 c10 -20 6 -42 -12 -65 -1 -1 -29 -13
-63 -26 l-61 -24 10 25 c38 101 101 145 126 90z m-7747 -118 c0 -40 47 -193
86 -284 19 -44 71 -144 115 -224 63 -111 78 -145 68 -152 -46 -28 -273 -31
-399 -5 -232 48 -254 92 -147 299 69 133 143 256 214 356 47 65 63 68 63 10z
m-2490 -41 c43 -54 62 -87 75 -127 l7 -24 -30 22 c-17 12 -40 36 -51 54 -30
49 -61 127 -51 127 5 0 28 -23 50 -52z m16945 -1778 c747 -982 1363 -1791
1369 -1799 8 -12 8 -13 -2 -7 -236 142 -1677 995 -1678 993 -1 -1 56 -348 126
-772 70 -423 127 -771 126 -772 -5 -6 -1355 1269 -1618 1526 -100 100 -188
179 -193 177 -20 -7 -452 -369 -1043 -874 -151 -129 -276 -232 -278 -229 -2 2
61 197 140 433 80 236 144 429 143 430 -1 1 -123 -36 -272 -82 -148 -46 -272
-84 -274 -84 -3 0 44 46 104 102 189 176 440 426 625 623 645 688 1061 1269
1251 1745 44 112 99 312 99 363 0 18 4 27 8 22 5 -6 620 -813 1367 -1795z
m-10575 1620 c51 -86 80 -175 80 -249 0 -50 -4 -65 -26 -91 -15 -17 -40 -38
-56 -46 -47 -24 -138 -35 -199 -24 -61 12 -142 57 -147 82 -2 9 24 50 56 90
65 79 146 215 183 305 l23 56 23 -29 c13 -16 41 -58 63 -94z m3182 -197 c18
-16 23 -48 12 -77 -9 -24 -60 -20 -78 6 -16 23 -21 69 -9 81 12 13 56 7 75
-10z m-8355 -75 c44 -57 147 -237 140 -244 -12 -12 -101 108 -146 195 -68 133
-67 145 6 49z m5631 -31 c12 -13 46 -59 76 -102 56 -81 59 -105 15 -105 -38 0
-128 142 -129 203 0 33 10 34 38 4z m418 -8 c14 -23 -97 -109 -140 -109 -28 0
-28 22 0 52 55 58 122 86 140 57z m624 -38 c0 -10 -22 -53 -50 -95 -54 -82
-80 -95 -114 -57 -16 18 -16 22 -2 49 22 42 120 115 164 122 1 0 2 -8 2 -19z
m-5896 -250 c30 -18 82 -41 117 -52 35 -11 75 -26 88 -32 26 -13 44 -60 35
-90 -9 -27 -59 -16 -174 40 -77 37 -109 60 -171 122 -63 64 -159 199 -159 224
0 4 47 -34 105 -86 58 -51 130 -108 159 -126z m6087 141 c-6 -22 -20 -51 -32
-66 -22 -28 -77 -61 -86 -52 -13 13 34 104 76 150 40 42 46 46 49 28 2 -11 -2
-38 -7 -60z m-3375 -92 c81 -28 151 -73 239 -152 41 -37 86 -70 99 -74 18 -4
59 11 148 55 158 77 213 91 378 98 109 4 142 2 173 -10 37 -16 37 -16 37 -75
0 -45 -4 -61 -16 -66 -27 -10 -33 -7 -59 34 -30 47 -50 51 -60 13 -9 -36 -33
-63 -57 -63 -11 0 -39 9 -64 21 -41 18 -48 19 -69 5 -12 -8 -31 -35 -41 -59
l-18 -45 -38 30 c-21 17 -55 32 -77 35 -32 4 -43 1 -74 -26 -19 -18 -47 -52
-62 -76 -31 -53 -60 -59 -115 -22 -79 53 -98 37 -79 -67 17 -99 11 -105 -109
-108 l-97 -3 0 -27 c0 -21 22 -45 113 -123 146 -124 177 -177 139 -229 -15
-21 -28 -20 -147 13 -41 11 -93 21 -116 21 -105 0 -208 -63 -250 -154 -43 -93
-27 -154 71 -263 41 -45 67 -65 95 -73 71 -19 190 22 265 91 l45 42 0 -65 c0
-51 -5 -72 -23 -99 -27 -40 -76 -75 -126 -89 -54 -15 -173 -12 -252 6 -64 14
-72 14 -94 0 -31 -21 -34 -69 -5 -94 11 -9 52 -31 92 -47 93 -39 106 -65 59
-112 -41 -41 -39 -64 7 -116 71 -78 255 -442 277 -547 l8 -35 -45 53 c-24 30
-77 106 -118 170 -164 261 -280 424 -280 396 0 -27 54 -164 122 -309 69 -146
108 -243 108 -268 0 -6 -28 30 -61 79 -129 187 -319 437 -326 430 -8 -7 64
-167 146 -328 71 -139 128 -284 117 -295 -7 -8 -105 124 -186 252 -87 138
-151 227 -158 220 -8 -7 20 -80 88 -230 70 -155 104 -252 98 -283 -5 -25 -70
65 -164 228 -42 74 -92 157 -111 185 -29 43 -33 47 -33 24 0 -41 27 -131 80
-268 27 -71 54 -148 59 -171 l9 -42 -22 21 c-13 12 -51 75 -85 140 -35 66 -74
130 -88 143 l-25 23 7 -30 c14 -66 39 -135 86 -237 27 -59 49 -112 49 -118 0
-17 -35 -11 -59 11 -13 12 -35 49 -50 83 -28 61 -56 95 -68 82 -16 -16 -15
-135 2 -191 17 -61 63 -113 203 -234 52 -44 112 -128 112 -156 0 -10 -85 37
-137 77 -75 57 -156 169 -229 315 -35 71 -65 121 -68 113 -3 -8 -9 -82 -15
-165 -8 -136 -12 -157 -43 -230 -31 -74 -40 -85 -113 -145 -44 -35 -131 -115
-194 -177 -63 -63 -117 -111 -120 -107 -3 3 -6 40 -6 82 1 67 5 85 33 138 18
33 62 94 98 134 36 41 82 108 102 149 33 67 37 83 37 150 -1 86 -22 140 -82
211 -45 52 -169 140 -198 140 -27 0 -45 -18 -45 -46 0 -30 21 -44 77 -52 42
-6 48 -10 51 -33 4 -38 -27 -61 -85 -61 -45 0 -113 -14 -113 -24 0 -3 16 -18
35 -35 45 -40 47 -86 6 -167 -87 -174 -112 -297 -110 -537 2 -167 1 -184 -20
-230 -47 -105 -102 -137 -248 -143 -70 -3 -103 -1 -103 7 0 14 38 38 75 47 59
13 80 50 51 90 -11 15 -27 19 -73 19 -63 0 -79 14 -34 30 41 14 44 20 30 47
-16 32 -28 38 -71 38 -20 0 -49 5 -65 11 -26 10 -27 12 -8 19 11 5 50 9 87 9
117 2 165 33 182 120 5 29 4 32 -12 26 -112 -43 -285 -53 -540 -30 -110 10
-212 15 -225 11 -31 -7 -44 -41 -26 -63 8 -8 38 -27 69 -42 69 -33 72 -55 10
-59 -96 -5 -110 -10 -110 -41 0 -35 13 -47 104 -91 70 -35 71 -35 71 -75 0
-34 -4 -41 -28 -49 -38 -14 -148 6 -187 34 -60 43 -60 39 -50 451 11 425 21
515 79 688 135 403 343 715 666 994 475 412 485 423 485 520 0 48 -31 140 -57
169 -23 26 -67 32 -102 14 -31 -17 -74 -81 -85 -127 -10 -43 -31 -42 -56 3
-27 47 -30 120 -7 165 9 16 59 75 112 131 112 118 160 146 287 166 97 16 118
25 147 62 25 32 27 77 5 156 -15 54 -15 61 0 102 9 24 33 59 52 79 82 82 195
103 398 72 136 -21 249 -16 366 14 41 11 89 22 105 24 57 10 184 -2 241 -23z
m1437 -111 c24 -14 38 -52 31 -88 -6 -29 -9 -30 -79 -36 -77 -8 -108 1 -133
37 -18 25 -31 23 -42 -7 -10 -27 -29 -32 -48 -13 -18 18 -15 88 6 111 16 18
26 19 132 12 63 -4 123 -11 133 -16z m354 -35 c31 -19 50 -81 31 -100 -22 -22
-52 8 -77 74 l-19 53 21 -7 c12 -3 32 -12 44 -20z m-4064 -22 c18 -20 60 -132
52 -140 -9 -9 -99 31 -122 54 -22 22 -32 82 -16 97 13 14 70 6 86 -11z m711
-12 c79 -9 103 -27 116 -86 5 -21 8 -40 6 -41 -2 -2 -25 6 -51 18 -45 20 -59
21 -172 14 l-123 -7 0 46 c0 62 25 80 100 71 30 -4 86 -10 124 -15z m-337 0
c39 -14 155 -143 147 -164 -8 -20 -17 -20 -57 0 -56 29 -97 66 -122 109 -39
65 -32 77 32 55z m-127 -20 c11 -11 22 -32 26 -47 3 -16 10 -41 15 -57 l9 -29
-41 7 c-23 4 -50 11 -61 17 -38 20 -72 101 -51 122 15 15 83 7 103 -13z m2509
-604 c20 -21 23 -32 19 -76 -3 -28 -9 -55 -15 -61 -5 -5 -31 33 -67 102 l-58
110 48 -24 c27 -14 60 -37 73 -51z m-449 -300 c0 -2 3 -11 6 -19 9 -23 -24
-49 -47 -37 -19 10 -26 40 -12 53 7 8 53 10 53 3z m6743 -326 c89 -108 321
-343 421 -428 50 -42 131 -102 180 -134 l89 -57 -74 -36 c-173 -82 -353 -97
-489 -40 -53 22 -76 26 -127 23 -57 -4 -67 -7 -103 -43 -51 -50 -73 -119 -68
-213 l3 -67 -31 -3 c-40 -4 -160 57 -315 160 l-115 77 -72 -18 c-149 -39 -242
-36 -242 7 0 31 56 101 177 219 171 168 684 623 702 623 4 0 33 -31 64 -70z
m-6201 -71 c48 -24 76 -79 85 -161 l6 -62 -26 20 c-39 32 -72 73 -122 158
l-46 78 33 -7 c18 -4 50 -16 70 -26z m-149 -151 c23 -18 169 -263 191 -321 19
-51 16 -74 -10 -84 -22 -8 -43 16 -120 142 -37 61 -84 131 -105 156 -44 53
-49 81 -17 103 27 19 39 20 61 4z m760 -299 c105 -209 158 -305 171 -307 22
-5 66 35 66 60 0 10 -25 60 -55 110 -53 88 -95 196 -95 242 1 54 247 -259 402
-512 170 -278 208 -323 255 -305 26 10 32 23 22 50 -5 14 -9 34 -9 45 0 18 4
20 33 14 92 -18 269 -125 395 -238 96 -86 142 -117 142 -95 0 7 -16 27 -35 44
-42 37 -43 46 -10 78 27 28 69 32 125 13 23 -7 122 -12 280 -13 241 -1 247 -2
361 -32 142 -39 246 -80 367 -144 222 -118 379 -243 647 -517 105 -107 276
-271 380 -365 105 -94 249 -230 321 -304 123 -124 161 -152 178 -125 9 14 -33
93 -84 157 -27 35 -50 65 -50 67 0 3 51 -21 113 -53 177 -92 367 -147 752
-219 121 -22 297 -56 390 -75 433 -86 658 -86 1380 5 559 70 765 82 1055 60
263 -20 422 -54 588 -127 101 -43 108 -45 173 -39 67 7 67 7 161 -45 126 -70
170 -104 264 -201 104 -109 169 -208 264 -403 135 -278 157 -336 200 -527 15
-65 5 -88 -36 -88 -30 0 -37 11 -120 195 -147 322 -270 539 -394 694 -107 133
-181 204 -214 204 -15 0 -29 -3 -32 -6 -4 -3 23 -43 59 -89 152 -196 307 -462
443 -763 116 -258 151 -302 292 -372 164 -81 271 -262 279 -473 l4 -95 -26 30
c-14 17 -57 93 -95 170 -105 211 -203 321 -371 415 -37 21 -77 54 -100 82 -20
26 -93 157 -161 290 -198 387 -282 513 -452 681 -104 103 -125 112 -153 71
-13 -21 -10 -26 54 -90 142 -143 278 -352 398 -613 39 -86 128 -255 197 -376
170 -299 219 -392 272 -518 53 -125 67 -187 43 -187 -45 0 -66 26 -153 183
-84 154 -343 554 -367 569 -15 9 -51 -15 -55 -37 -2 -9 46 -105 106 -213 167
-300 227 -417 271 -530 38 -97 121 -366 121 -391 0 -6 -11 -16 -25 -23 -47
-21 -67 6 -194 265 -123 250 -181 349 -268 452 -45 53 -173 165 -173 151 0 -3
41 -67 91 -143 162 -247 279 -511 333 -754 40 -181 63 -509 36 -509 -16 0 -90
71 -106 101 -8 16 -25 85 -39 154 -61 304 -176 573 -396 926 -91 145 -112 166
-144 145 -34 -22 -28 -47 30 -140 247 -393 373 -695 425 -1021 19 -119 33
-152 109 -270 76 -116 144 -297 128 -339 -19 -50 -77 7 -230 226 -134 191
-177 300 -223 557 -29 165 -102 359 -200 533 -53 95 -259 407 -301 456 -21 26
-35 33 -54 30 l-27 -3 53 -110 c28 -60 82 -154 118 -208 36 -54 93 -152 127
-217 108 -213 161 -374 205 -631 51 -301 131 -461 397 -789 171 -212 317 -411
572 -775 178 -255 213 -311 200 -318 -32 -18 -64 5 -151 110 -96 116 -110 135
-226 314 -131 201 -275 377 -559 682 -88 95 -184 208 -213 252 -119 180 -189
358 -231 589 -59 323 -132 524 -275 762 -47 79 -73 100 -99 84 -10 -6 0 -37
38 -123 102 -229 183 -514 241 -842 17 -94 40 -202 52 -240 43 -141 141 -316
242 -434 67 -78 61 -134 -13 -134 -87 0 -257 218 -349 449 -56 139 -86 257
-126 499 -41 244 -79 402 -140 594 -113 350 -285 689 -509 1005 -119 167 -240
286 -475 465 -81 62 -96 70 -104 56 -22 -40 2 -76 144 -223 272 -280 338 -405
295 -555 -9 -31 -20 -58 -25 -61 -4 -3 -32 25 -61 62 -247 310 -540 622 -585
622 -24 0 -45 -18 -45 -37 0 -7 75 -104 166 -215 92 -112 184 -230 205 -263
51 -79 102 -220 95 -260 -8 -35 -43 -75 -67 -75 -28 0 -110 84 -541 558 -59
65 -98 81 -98 41 0 -30 17 -58 65 -109 60 -63 185 -226 229 -299 56 -91 86
-174 107 -290 25 -141 53 -195 166 -313 103 -107 123 -143 123 -215 0 -85 -10
-83 -95 13 -178 203 -487 602 -835 1077 -35 48 -68 87 -72 87 -5 0 -13 -11
-19 -24 -12 -25 -39 19 421 -681 72 -110 172 -251 223 -313 167 -206 191 -240
244 -336 69 -126 72 -140 38 -162 -33 -22 -14 -42 -194 206 -92 127 -137 180
-163 195 l-37 20 -28 -21 c-38 -29 -42 -73 -9 -127 13 -24 74 -110 135 -192
132 -178 153 -218 149 -276 l-3 -43 -103 125 c-165 197 -267 362 -312 504 -26
84 -132 288 -255 495 -143 241 -185 291 -185 221 0 -41 21 -94 74 -186 106
-183 271 -556 282 -637 5 -32 1 -55 -11 -82 l-17 -36 55 -60 c90 -97 265 -319
287 -365 20 -41 30 -176 13 -174 -5 0 -24 26 -45 57 -20 31 -94 125 -165 207
-162 190 -196 241 -259 396 -99 242 -188 412 -317 604 -69 103 -81 114 -120
115 -28 0 -27 0 91 -232 127 -249 185 -387 227 -544 31 -113 29 -158 -10 -209
-19 -26 -34 -35 -56 -35 -33 0 -28 -9 -85 150 -109 305 -339 720 -399 720 -28
0 -22 -33 20 -112 111 -211 218 -486 250 -644 19 -97 11 -128 -40 -149 -91
-39 -111 -16 -189 220 -104 311 -197 519 -256 569 -27 22 -90 37 -90 21 0 -2
16 -30 36 -61 49 -76 108 -221 139 -336 23 -90 73 -336 82 -408 7 -51 -23 -75
-92 -75 -46 0 -58 4 -85 30 -39 37 -52 83 -85 304 -44 289 -95 427 -197 529
-53 53 -63 58 -87 43 -12 -8 -9 -18 17 -58 85 -132 130 -280 162 -532 11 -86
28 -200 37 -254 9 -53 13 -100 10 -103 -3 -4 -27 -3 -52 0 -56 9 -105 49 -132
109 -11 23 -57 177 -102 342 -46 165 -88 311 -95 325 -11 23 -59 50 -70 39 -3
-3 1 -52 9 -109 57 -437 228 -841 562 -1337 75 -112 81 -124 47 -94 -91 79
-194 208 -363 454 -56 81 -131 187 -168 235 -85 111 -127 203 -204 438 -34
104 -76 221 -95 259 -35 75 -104 179 -104 157 0 -27 82 -412 111 -521 36 -135
89 -273 131 -341 35 -56 32 -82 -12 -105 -113 -58 -169 55 -310 628 -71 290
-138 502 -236 744 -77 190 -212 488 -235 517 -17 22 -85 54 -93 44 -2 -1 28
-77 66 -168 236 -562 390 -1072 429 -1419 20 -181 -17 -263 -91 -203 -21 17
-23 29 -31 183 -20 423 -129 775 -411 1331 -125 245 -173 304 -303 368 -105
52 -139 89 -224 246 -103 193 -280 451 -363 531 -34 33 -81 56 -92 46 -18 -18
-4 -73 30 -117 88 -116 202 -327 319 -591 31 -71 68 -151 81 -177 29 -58 31
-94 5 -108 -56 -30 -78 -7 -221 226 -151 246 -207 333 -253 388 -41 49 -131
126 -147 126 -5 0 26 -55 69 -122 193 -306 347 -593 397 -743 34 -100 38 -122
42 -247 2 -77 1 -138 -4 -138 -12 0 -20 13 -151 259 -129 242 -215 377 -296
466 l-55 60 -26 -24 c-45 -42 -36 -73 52 -192 216 -291 350 -597 396 -899 53
-353 55 -408 14 -434 -31 -19 -47 15 -93 200 -50 204 -97 346 -160 481 -107
229 -339 570 -388 573 -12 0 2 -58 24 -101 10 -20 45 -79 79 -130 73 -113 185
-338 234 -470 111 -301 178 -660 180 -968 1 -169 -3 -181 -58 -167 -37 9 -50
45 -70 191 -37 264 -108 571 -173 745 -45 121 -129 303 -206 447 -52 98 -64
114 -94 124 -19 6 -37 9 -39 6 -3 -3 14 -43 37 -88 187 -372 291 -797 344
-1405 8 -98 18 -206 21 -240 7 -63 -7 -94 -42 -94 -57 0 -72 39 -134 358 -92
470 -121 606 -156 741 -35 135 -90 293 -127 366 -18 35 -21 38 -28 20 -14 -36
-9 -128 10 -210 77 -320 148 -711 181 -995 32 -270 65 -382 155 -521 52 -80
61 -109 45 -138 -20 -38 -48 -25 -123 55 -170 180 -208 283 -262 714 -46 360
-104 610 -155 672 -15 18 -31 30 -34 27 -4 -4 2 -69 13 -145 11 -77 34 -276
51 -444 30 -300 56 -492 85 -618 8 -35 15 -66 15 -70 0 -17 -108 102 -151 166
-102 155 -141 308 -163 635 -7 120 -16 220 -19 223 -8 8 -45 -113 -62 -200
-41 -213 8 -499 118 -696 56 -99 214 -260 317 -322 65 -38 75 -48 75 -73 0
-50 -24 -53 -111 -10 -273 133 -423 301 -519 580 -35 103 -75 291 -75 355 0
80 -56 115 -97 62 -46 -58 54 -532 152 -721 20 -40 9 -40 -67 1 -69 37 -105
79 -153 179 -48 101 -82 242 -107 444 -12 94 -26 176 -31 183 -13 17 -42 15
-58 -4 -9 -11 -12 -49 -11 -137 6 -316 52 -521 164 -724 50 -92 79 -127 118
-143 34 -14 47 -48 30 -79 -15 -29 -33 -26 -93 13 -96 64 -193 179 -254 300
-128 254 -147 549 -52 785 83 204 84 223 13 326 -94 138 -120 212 -169 485
-19 107 -38 206 -41 220 -5 24 -5 24 15 6 42 -38 99 -169 130 -298 35 -148 67
-227 127 -321 84 -129 260 -277 330 -277 19 0 34 3 34 6 0 4 -36 44 -79 90
-231 244 -374 604 -388 980 -6 153 0 174 52 174 29 0 36 -4 41 -25 3 -14 4
-31 1 -39 -7 -19 45 -311 78 -434 56 -210 160 -360 332 -480 34 -24 113 -55
121 -48 2 3 -18 29 -45 58 -165 178 -289 409 -353 656 -42 166 -54 286 -55
537 0 266 6 297 57 303 24 3 27 -1 37 -45 6 -26 15 -131 21 -233 13 -252 17
-287 51 -418 57 -223 131 -364 256 -488 96 -95 138 -119 178 -104 l27 10 -89
94 c-267 279 -366 587 -367 1146 l-1 225 51 105 c103 211 126 326 124 620 -1
113 -2 210 -1 217 1 18 39 35 60 28 24 -7 165 -216 186 -274 8 -24 15 -56 15
-71 0 -32 21 -53 47 -48 26 5 28 49 5 95 -11 21 -34 77 -51 126 -65 184 -120
268 -220 336 -78 53 -100 99 -108 220 -7 103 1 121 51 121 51 0 187 -53 261
-102 39 -25 112 -82 164 -127 97 -85 179 -146 186 -139 9 9 -85 155 -137 214
-101 115 -236 218 -385 293 -69 35 -83 53 -86 114 -2 36 1 42 20 45 29 4 271
-113 379 -183 47 -31 109 -78 138 -104 68 -63 166 -141 177 -141 5 0 9 17 9
38 0 34 -8 45 -102 137 -157 154 -283 243 -475 337 -187 91 -244 137 -302 248
-32 60 -139 180 -161 180 -20 0 -8 -32 85 -216 121 -238 145 -314 152 -459 l4
-110 -26 30 c-15 17 -76 131 -137 255 -123 251 -158 309 -226 382 -42 45 -47
48 -59 32 -20 -27 -17 -39 37 -128 144 -239 244 -528 305 -881 24 -141 55
-404 48 -420 -7 -20 -52 -31 -72 -18 -16 10 -19 19 -46 198 -32 207 -106 476
-186 676 -50 127 -155 339 -179 363 -19 20 -20 19 -35 -17 -25 -60 -18 -101
39 -236 121 -287 205 -613 256 -1001 7 -47 16 -100 22 -119 10 -31 8 -37 -12
-53 -28 -23 -62 -23 -90 0 -18 14 -24 36 -36 137 -32 268 -120 543 -278 878
-30 65 -62 143 -70 173 -8 31 -17 58 -20 61 -9 9 -36 -56 -36 -88 0 -18 34
-132 75 -254 114 -339 169 -559 212 -855 40 -276 40 -274 10 -304 -30 -30 -77
-34 -101 -10 -11 11 -16 35 -16 79 0 76 -42 333 -76 463 -59 229 -167 442
-224 442 -25 0 -22 -18 51 -306 32 -127 65 -269 73 -315 19 -114 29 -261 18
-278 -11 -15 -36 -5 -64 26 -23 25 -86 188 -148 383 -46 145 -97 267 -141 337
-11 19 -10 27 8 60 30 53 48 123 82 313 53 298 51 435 -10 623 -16 51 -88 211
-159 357 -96 195 -130 276 -130 303 0 20 4 37 10 37 30 0 62 -29 89 -79 16
-31 58 -106 93 -166 35 -61 85 -162 112 -225 54 -127 69 -150 101 -150 34 0
45 20 45 80 0 80 -31 179 -104 338 -124 267 -236 574 -236 644 0 44 9 92 17
85 2 -3 72 -141 156 -308z m-933 132 c136 -139 227 -301 250 -446 10 -60 8
-87 -4 -74 -2 2 -30 51 -61 109 -71 128 -192 322 -280 448 -63 90 -65 92 -33
76 18 -9 76 -60 128 -113z m-175 -35 c96 -96 185 -252 219 -382 37 -144 22
-128 -159 169 -96 158 -175 290 -175 293 0 14 70 -35 115 -80z m-5425 -2201
c799 -819 1503 -1541 1564 -1603 l111 -113 -65 25 c-36 13 -343 135 -683 270
-340 135 -619 246 -621 246 -1 0 11 -145 26 -322 15 -178 26 -327 25 -331 -1
-4 -284 307 -627 692 -344 385 -627 700 -630 700 -3 0 -246 -267 -540 -593
-294 -326 -536 -592 -538 -591 -2 2 6 256 18 565 11 309 20 596 20 637 l0 75
-467 -237 -467 -237 46 54 c424 499 788 1160 1071 1943 36 99 85 244 108 323
l43 143 77 -78 c42 -43 730 -748 1529 -1568z m5446 1497 c82 -60 208 -220 220
-279 7 -38 -18 -72 -43 -57 -10 6 -56 67 -103 137 -47 69 -103 144 -124 166
-60 61 -23 86 50 33z m751 16 c5 -7 48 -94 95 -193 137 -286 175 -432 162
-625 -4 -58 -11 -111 -17 -117 -16 -21 -55 -15 -71 10 -9 14 -16 63 -19 137
-9 196 -86 489 -176 668 -40 79 -48 111 -34 125 11 12 50 8 60 -5z m-404 -46
c39 -40 61 -122 34 -122 -20 0 -96 77 -103 105 -13 51 27 61 69 17z m-484 -48
c74 -43 178 -285 169 -389 -3 -32 -13 -18 -117 170 -94 170 -111 207 -101 220
15 19 16 19 49 -1z m-167 -51 c9 -10 19 -29 23 -43 4 -14 32 -60 61 -103 45
-65 54 -86 54 -121 0 -45 -19 -72 -43 -63 -15 6 -187 286 -187 304 0 15 39 43
61 43 9 0 23 -8 31 -17z m-219 -50 c24 -17 67 -71 117 -147 44 -66 77 -122 76
-124 -2 -2 -21 5 -43 16 -36 19 -80 65 -146 154 -23 31 -34 37 -70 40 l-42 3
2 40 c4 61 8 66 40 54 15 -5 45 -22 66 -36z m16569 -1454 c542 -636 988 -1162
992 -1168 5 -7 -7 -6 -31 4 -21 8 -344 141 -718 294 -374 153 -681 278 -683
276 -2 -2 76 -274 172 -606 97 -332 174 -605 172 -606 -3 -3 -962 1058 -1177
1301 -4 4 -51 -23 -106 -62 -275 -196 -563 -335 -781 -376 -98 -19 -172 -27
-172 -20 0 3 40 63 89 132 274 389 676 1061 1054 1759 l152 282 26 -27 c15
-15 470 -547 1011 -1183z m-15426 1013 c16 -58 32 -312 20 -312 -11 0 -52 99
-66 160 -15 63 -18 176 -6 235 l9 40 14 -33 c7 -18 21 -59 29 -90z m-1686
-229 c-1 -262 -204 -516 -448 -564 -60 -11 -201 -7 -224 7 -5 4 15 16 45 29
172 70 305 186 515 452 53 68 100 123 105 123 4 0 7 -21 7 -47z m1454 -16 c71
-121 102 -218 87 -275 -7 -24 -7 -24 -33 15 -59 89 -81 146 -86 221 -2 39 -1
72 4 72 5 0 18 -15 28 -33z m-134 -342 c71 -122 91 -163 88 -187 -4 -39 -30
-57 -53 -38 -44 36 -135 266 -135 339 0 23 2 41 4 41 2 0 45 -70 96 -155z
m615 135 c13 -14 18 -37 19 -82 1 -61 0 -63 -26 -66 -45 -5 -78 36 -78 96 0
26 5 53 12 60 18 18 53 14 73 -8z m-1375 -316 c10 -38 33 -152 50 -254 31
-177 80 -363 100 -375 14 -9 13 313 -2 462 -9 97 -9 134 1 179 7 31 16 52 20
48 5 -5 18 -69 30 -142 12 -73 27 -142 34 -153 15 -25 49 -34 76 -19 26 13 26
35 2 91 -26 59 -35 111 -26 157 l7 37 32 -90 c18 -49 60 -155 93 -235 68 -162
98 -253 108 -326 3 -27 8 -60 11 -74 l5 -24 -22 19 c-12 11 -36 52 -54 90 -21
48 -40 74 -57 82 -14 6 -29 9 -32 6 -3 -4 -6 -104 -6 -223 0 -162 -4 -230 -15
-275 -28 -107 -35 -93 -45 98 -9 166 -27 246 -66 294 l-23 28 -1 -200 c0 -216
-12 -298 -53 -388 l-24 -52 -7 90 c-4 50 -9 103 -13 119 l-5 30 -14 -25 c-8
-13 -25 -62 -40 -109 -14 -47 -38 -103 -52 -125 l-27 -40 -5 135 -5 135 -18
-58 c-10 -33 -29 -132 -42 -220 -23 -153 -44 -245 -64 -275 -18 -28 -22 123
-16 542 5 289 4 469 -4 545 -6 63 -9 116 -7 118 10 10 59 -109 86 -207 41
-154 44 -160 78 -160 15 0 36 6 46 13 21 15 21 2 -12 212 -28 172 -62 609 -47
594 3 -4 14 -37 25 -75z m1255 41 c22 -21 25 -33 25 -99 0 -41 -5 -78 -10 -81
-16 -10 -79 34 -96 67 -19 37 -12 90 17 119 25 25 35 24 64 -6z m235 -109 c10
-22 23 -75 30 -116 7 -41 38 -167 70 -280 99 -354 133 -496 126 -524 -7 -29
-49 -45 -74 -29 -36 22 -166 348 -213 531 -50 197 -49 309 2 430 22 50 33 48
59 -12z m-869 -81 c16 -33 31 -83 35 -110 l5 -50 -36 39 c-47 53 -82 129 -90
196 l-6 55 32 -35 c17 -19 44 -62 60 -95z m459 -89 c0 -33 -11 -66 -42 -127
-24 -45 -47 -83 -53 -83 -15 -2 -18 63 -5 121 12 56 61 133 85 133 11 0 15
-12 15 -44z m157 -173 c7 -18 13 -50 13 -71 0 -43 53 -245 95 -362 38 -106
106 -239 170 -335 54 -81 66 -120 43 -143 -19 -19 -53 -14 -75 11 -58 64 -240
431 -277 557 -44 154 -56 347 -23 388 13 17 35 -2 54 -45z m1364 -83 c24 -13
24 -42 1 -113 -48 -144 -91 -140 -77 6 12 114 25 134 76 107z m-1638 -320 c75
-236 180 -454 324 -672 37 -57 70 -107 72 -111 10 -23 -81 38 -125 85 -172
178 -319 528 -329 783 -4 91 -3 104 7 75 6 -19 29 -91 51 -160z m1402 86 c32
-66 56 -263 34 -277 -23 -15 -42 -6 -63 31 -18 30 -21 56 -24 180 -4 130 -2
143 12 131 8 -7 27 -36 41 -65z m-2635 -206 c0 -47 -4 -91 -9 -99 -16 -25 -41
85 -41 178 l1 86 24 -40 c21 -34 25 -52 25 -125z m2418 -9 c8 -5 15 -35 17
-77 2 -38 8 -114 14 -168 12 -105 7 -126 -30 -126 -12 0 -27 17 -44 50 -23 45
-25 60 -25 178 0 130 6 152 40 152 8 0 21 -4 28 -9z m-1274 -457 c63 -116 158
-258 240 -361 67 -82 78 -111 51 -133 -24 -20 -52 -2 -116 78 -146 181 -249
383 -297 582 -40 165 -36 173 21 44 29 -66 75 -160 101 -210z m994 6 c1 -124
0 -235 -3 -247 -4 -16 -13 -23 -30 -23 -42 0 -47 34 -43 261 4 219 9 243 52
237 20 -3 21 -9 24 -228z m-1056 -512 c74 -144 78 -158 39 -158 -11 0 -113
145 -154 220 -46 83 -95 229 -102 306 l-7 59 74 -140 c41 -77 108 -206 150
-287z m10096 337 c51 -74 116 -295 99 -338 -8 -22 -40 -22 -59 1 -25 27 -110
355 -95 364 21 14 32 9 55 -27z m-9406 -148 c-37 -65 -52 -71 -52 -19 0 48 16
95 49 146 l26 40 3 -58 c3 -48 -2 -66 -26 -109z m736 151 c7 -7 12 -40 12 -78
0 -38 -5 -71 -12 -78 -19 -19 -66 -15 -78 7 -16 31 -13 127 6 145 18 19 55 21
72 4z m2390 -14 c46 -32 248 -468 335 -724 108 -315 177 -686 177 -946 0 -73
-2 -85 -20 -94 -24 -13 -56 1 -64 27 -6 23 -22 160 -41 356 -35 363 -132 675
-345 1106 -94 190 -109 235 -94 275 8 20 24 20 52 0z m-4134 -349 c69 -135
126 -249 126 -254 0 -5 -7 -11 -15 -15 -17 -6 -136 166 -194 283 -45 90 -85
206 -76 221 18 29 43 -9 159 -235z m4177 -266 c21 -48 45 -113 53 -145 22 -85
60 -320 101 -619 19 -143 40 -284 45 -314 8 -44 7 -59 -5 -78 -18 -27 -60 -31
-73 -5 -5 9 -12 121 -15 247 -3 130 -12 271 -21 325 -43 265 -95 462 -167 627
-79 182 -89 210 -89 256 0 41 1 40 67 -83 37 -69 84 -164 104 -211z m-2642
307 c7 -8 11 -29 9 -48 -4 -40 -47 -70 -75 -52 -22 13 -29 79 -12 100 15 18
63 18 78 0z m2350 -60 c26 -41 29 -121 5 -130 -23 -9 -23 -9 -44 27 -13 21
-20 50 -20 85 0 45 3 52 19 52 11 0 28 -14 40 -34z m4422 -28 c46 -38 161
-271 213 -431 62 -187 134 -499 182 -787 50 -299 50 -310 -2 -310 -55 0 -68
40 -189 578 -45 202 -106 415 -196 687 -65 198 -78 253 -62 268 10 11 38 8 54
-5z m2404 -173 c35 -74 51 -138 60 -245 l6 -65 -34 52 c-40 61 -70 153 -92
277 -8 49 -15 91 -15 95 1 16 45 -52 75 -114z m-2788 -27 c32 -35 64 -103 70
-148 6 -39 5 -40 -18 -32 -13 5 -43 32 -66 61 -34 41 -43 60 -43 90 0 57 21
68 57 29z m-4214 -20 c61 -30 114 -85 147 -150 25 -50 30 -73 30 -130 0 -71
-19 -128 -43 -128 -25 0 -36 17 -63 90 -14 41 -55 135 -90 209 -35 74 -64 136
-64 138 0 7 41 -8 83 -29z m3966 -24 c79 -72 140 -158 195 -275 70 -149 67
-155 -24 -59 -111 118 -166 192 -211 284 -61 125 -53 134 40 50z m-6216 -56
c9 -129 40 -266 116 -511 99 -317 103 -345 55 -335 -21 4 -37 45 -143 353 -38
110 -81 227 -96 260 -19 40 -29 83 -33 130 -4 64 -2 77 26 132 28 54 41 69 63
72 3 1 9 -45 12 -101z m-841 -230 c-38 -117 -75 -244 -82 -283 -6 -38 -14 -81
-17 -95 -10 -46 -22 8 -22 106 -1 143 49 294 146 441 20 29 38 51 40 49 3 -2
-27 -100 -65 -218z m478 77 c9 -11 9 -27 0 -70 -13 -63 -40 -98 -73 -93 -20 3
-22 9 -22 71 0 60 3 71 24 88 28 23 54 24 71 4z m9271 -171 c148 -78 245 -185
274 -302 26 -102 17 -114 -32 -40 -22 35 -109 131 -193 213 -83 83 -156 158
-161 167 -9 16 -7 17 18 7 15 -5 57 -26 94 -45z m-46 -328 c124 -137 199 -236
235 -311 16 -35 30 -65 30 -67 0 -2 -85 80 -189 182 -166 161 -194 193 -221
251 -17 37 -33 91 -37 120 l-6 54 48 -64 c26 -36 89 -110 140 -165z m-9456
134 c0 -31 -21 -91 -45 -127 l-18 -28 -8 30 c-12 42 -1 93 30 142 22 35 28 39
34 25 4 -9 7 -28 7 -42z m-745 -127 c52 -83 116 -191 141 -240 l47 -88 -59 61
c-85 90 -193 281 -228 404 -11 37 -4 28 99 -137z m7840 -182 c14 -26 28 -67
32 -92 l6 -44 -41 45 c-68 75 -103 136 -108 188 l-4 47 44 -49 c25 -26 57 -69
71 -95z m-6637 99 c8 -14 12 -51 11 -85 -3 -57 -4 -60 -30 -63 -38 -5 -65 26
-73 86 -9 67 5 94 48 90 22 -2 36 -11 44 -28z m8841 -130 c148 -79 339 -309
396 -480 l16 -45 -47 55 c-144 170 -329 317 -508 405 -80 39 -95 50 -95 72 0
19 59 33 122 29 39 -3 75 -14 116 -36z m-6398 1 c32 -46 50 -108 50 -172 0
-46 -3 -59 -15 -59 -21 0 -68 77 -101 162 -21 55 -24 71 -14 83 20 25 57 18
80 -14z m290 -71 c23 -45 28 -150 8 -150 -40 1 -88 78 -88 142 0 41 3 47 23
50 30 5 34 2 57 -42z m2805 22 c23 -16 322 -398 344 -439 20 -40 -11 -73 -50
-53 -10 6 -66 72 -122 148 -57 75 -134 170 -170 210 -71 77 -80 102 -45 126
25 18 29 19 43 8z m-5343 -24 c14 -11 16 -29 11 -120 -7 -121 -13 -129 -64
-79 -26 26 -29 36 -29 91 0 97 36 143 82 108z m6344 -120 c16 -30 19 -88 5
-88 -26 0 -93 108 -106 170 l-7 35 47 -45 c26 -25 53 -57 61 -72z m-1181 -68
c170 -186 266 -331 245 -370 -19 -36 -21 -35 -146 115 -207 248 -244 296 -244
320 0 26 27 48 46 37 7 -4 51 -50 99 -102z m-177 -226 c59 -83 192 -297 192
-310 0 -14 -100 69 -171 143 -109 114 -224 292 -283 438 -14 36 -6 29 92 -71
59 -60 136 -150 170 -200z m-579 252 c63 -46 159 -148 208 -221 57 -84 142
-255 127 -255 -14 0 -135 125 -212 220 -47 58 -110 131 -139 162 -44 46 -53
63 -53 92 0 20 5 36 11 36 6 0 32 -15 58 -34z m1804 -148 c61 -102 80 -155 75
-206 -3 -33 -6 -30 -100 101 -54 74 -98 144 -98 154 0 25 19 43 46 43 17 0 34
-21 77 -92z m-2570 -72 c22 -39 64 -128 93 -198 59 -143 55 -160 -20 -85 -83
83 -175 273 -191 392 l-6 50 41 -45 c23 -24 60 -76 83 -114z m5125 16 c59 -50
132 -143 168 -214 38 -75 29 -74 -42 4 -99 110 -254 294 -254 303 0 9 52 -29
128 -93z m-5458 68 c52 -52 170 -346 170 -423 0 -17 -2 -18 -17 -6 -30 25
-100 142 -167 282 -53 110 -64 142 -55 153 16 20 46 17 69 -6z m-1164 2 c18
-11 124 -161 153 -215 16 -32 26 -71 29 -110 l4 -62 -37 35 c-84 80 -205 262
-205 310 0 40 28 61 56 42z m874 -78 c82 -118 139 -321 95 -337 -8 -4 -16 -3
-19 1 -10 17 -146 353 -146 361 0 9 16 18 32 20 4 1 21 -20 38 -45z m-3110 26
c18 -11 34 -169 18 -187 -15 -19 -45 -16 -68 7 -16 16 -20 33 -20 89 0 38 3
76 6 85 7 18 41 21 64 6z m3999 -49 c15 -9 111 -159 111 -175 0 -18 -57 -2
-91 25 -61 48 -87 117 -57 147 14 14 15 14 37 3z m4681 -78 c137 -145 282
-341 389 -528 46 -80 67 -152 42 -143 -17 6 -551 682 -557 705 -3 13 -4 30 0
38 12 32 46 13 126 -72z m-1635 64 c14 -11 18 -28 19 -78 1 -60 0 -64 -22 -67
-40 -6 -72 33 -72 88 0 65 31 89 75 57z m338 -169 c47 -95 133 -256 191 -358
107 -186 130 -239 124 -288 -4 -35 -37 -40 -65 -10 -29 32 -231 374 -287 487
-64 127 -116 258 -116 292 0 28 21 48 51 49 12 0 43 -53 102 -172z m-5318 90
c80 -88 173 -218 254 -353 57 -96 124 -236 116 -244 -2 -2 -17 6 -32 18 -109
83 -349 442 -407 609 -8 23 -11 42 -6 42 5 0 38 -33 75 -72z m4154 -146 c25
-26 59 -71 74 -100 28 -51 28 -52 7 -52 -49 0 -190 171 -157 192 21 13 30 9
76 -40z m-306 -20 c73 -93 167 -245 167 -269 0 -18 -6 -23 -25 -23 -18 0 -38
17 -78 68 -78 96 -157 221 -157 247 0 55 38 46 93 -23z m-854 -222 c91 -104
106 -126 90 -128 -11 -2 -45 8 -75 23 -86 42 -153 135 -173 239 l-9 49 29 -29
c15 -16 77 -85 138 -154z m-5072 162 c25 -16 43 -82 43 -157 0 -41 -4 -75 -8
-75 -11 0 -57 50 -69 75 -29 58 -25 165 6 165 9 0 21 -4 28 -8z m5611 -26 c37
-19 68 -55 87 -98 29 -71 18 -76 -41 -18 -53 52 -84 96 -84 120 0 13 6 13 38
-4z m-3532 -184 c137 -170 267 -358 316 -455 16 -34 28 -60 26 -57 -104 109
-286 315 -331 375 -79 105 -186 324 -147 300 6 -3 67 -77 136 -163z m6644 -57
c54 -71 126 -175 161 -230 62 -99 204 -373 197 -380 -8 -8 -227 277 -322 420
-64 95 -166 284 -200 370 l-16 40 41 -45 c23 -25 85 -103 139 -175z m-4292
-91 c14 -101 -215 153 -244 271 -6 22 21 -3 117 -109 70 -78 125 -149 127
-162z m2834 83 c23 -34 108 -152 188 -262 163 -222 293 -415 285 -423 -10 -10
-88 54 -164 134 -134 141 -303 417 -390 637 -40 99 -39 105 4 34 20 -33 54
-87 77 -120z m-6909 -4 c63 -57 136 -128 163 -160 54 -62 134 -176 129 -181
-2 -2 -25 11 -52 29 -99 67 -186 145 -248 222 -63 78 -137 203 -117 196 6 -2
62 -50 125 -106z m601 53 c123 -89 306 -248 306 -267 0 -23 -37 -49 -69 -49
-31 0 -146 93 -211 171 -51 61 -128 199 -111 199 5 0 43 -24 85 -54z m3021 32
c23 -10 91 -110 111 -162 8 -21 -27 -21 -65 -1 -60 31 -100 99 -87 150 7 29 7
29 41 13z m-891 -197 c47 -107 84 -196 82 -198 -2 -2 -20 15 -40 39 -67 77
-136 247 -136 332 0 16 2 27 4 25 2 -2 43 -91 90 -198z m3939 142 c34 -49 101
-238 78 -221 -66 50 -99 103 -125 205 -9 34 -16 64 -16 67 0 16 39 -16 63 -51z
m-3421 -10 c33 -39 209 -375 204 -388 -18 -49 -97 45 -191 226 -68 132 -73
147 -53 167 16 16 22 15 40 -5z m1311 -211 c16 -29 25 -52 22 -52 -13 0 -123
90 -150 122 -31 36 -75 124 -75 148 1 24 172 -160 203 -218z m-1528 48 c47
-73 92 -176 82 -186 -27 -27 -157 195 -157 267 0 21 32 -13 75 -81z m-1716 55
c42 -21 120 -112 176 -205 l49 -83 -28 -24 c-16 -13 -35 -23 -44 -21 -39 7
-172 234 -186 316 -6 37 -5 37 33 17z m6449 -68 c60 -50 124 -123 170 -194 34
-53 68 -140 59 -150 -8 -7 -138 113 -196 181 -52 60 -103 138 -124 188 l-15
36 27 -9 c15 -5 50 -29 79 -52z m-252 11 c49 -45 77 -93 99 -166 17 -54 6 -75
-34 -70 -51 6 -108 111 -126 232 -9 58 2 59 61 4z m-2261 26 c9 -4 25 -24 36
-46 22 -44 14 -68 -23 -68 -25 0 -78 53 -78 77 0 35 28 51 65 37z m-3587 -115
c101 -118 238 -302 287 -386 45 -78 55 -119 33 -141 -23 -23 -45 -12 -79 41
-19 28 -105 153 -190 277 -185 267 -183 263 -169 291 10 18 14 19 33 6 12 -8
50 -47 85 -88z m4048 16 c3 -14 3 -36 0 -50 -5 -21 -12 -25 -40 -25 -71 0 -90
63 -26 89 42 16 59 13 66 -14z m-5183 -39 c29 -30 61 -70 72 -90 18 -33 18
-37 3 -52 -21 -21 -45 -13 -92 33 -61 59 -95 144 -63 156 22 10 26 7 80 -47z
m741 -201 c102 -129 151 -232 171 -362 6 -37 4 -43 -10 -43 -46 0 -134 147
-246 411 -33 79 -63 151 -66 159 -7 20 73 -67 151 -165z m3021 150 c43 -25 93
-91 134 -175 22 -45 21 -45 -41 25 -34 39 -87 94 -116 123 -60 58 -49 70 23
27z m2567 -42 c20 -25 218 -330 218 -338 0 -12 -64 29 -107 68 -73 67 -181
241 -170 271 8 21 40 20 59 -1z m-2084 -39 c40 -28 67 -104 42 -119 -14 -9
-85 31 -109 61 -21 27 -27 55 -14 67 12 12 58 7 81 -9z m-618 -159 c67 -75
120 -139 116 -142 -10 -10 -128 54 -189 102 -55 44 -117 124 -117 151 0 24 30
45 50 34 10 -5 73 -71 140 -145z m-3132 68 c81 -138 162 -322 177 -404 7 -40
-11 -61 -45 -52 -22 6 -24 10 -127 278 -78 204 -83 220 -67 232 10 7 19 13 20
13 1 0 20 -30 42 -67z m6497 -88 c29 -38 98 -140 152 -225 165 -257 301 -445
450 -617 35 -40 63 -78 63 -85 0 -20 -32 -48 -55 -48 -27 0 -52 27 -212 230
-250 317 -329 434 -418 611 -65 128 -97 216 -89 242 6 20 8 20 31 -8 14 -17
49 -61 78 -100z m-5814 -200 c87 -154 158 -286 159 -292 0 -28 -41 -10 -80 35
-102 115 -178 241 -246 410 -38 97 -41 107 -26 119 10 7 21 11 26 10 4 -2 79
-129 167 -282z m6325 -62 c142 -192 260 -357 262 -369 5 -26 -22 -54 -52 -54
-12 0 -34 12 -48 28 -24 25 -235 329 -406 584 -84 126 -92 158 -36 158 18 0
74 -70 280 -347z m78 306 c33 -26 93 -114 136 -199 35 -69 100 -218 100 -228
0 -11 -91 82 -134 138 -52 67 -176 263 -176 278 0 10 27 31 41 32 4 0 18 -9
33 -21z m-7225 -154 c28 -85 61 -235 61 -276 0 -10 -10 -23 -21 -30 -39 -20
-47 4 -74 223 -14 113 -25 210 -25 214 1 21 32 -48 59 -131z m2916 99 c16 -16
113 -146 130 -173 17 -29 -98 45 -140 90 -44 48 -57 83 -32 92 20 9 25 8 42
-9z m-3170 -4 c16 -25 56 -181 61 -235 l5 -60 -21 25 c-49 55 -119 231 -107
264 7 17 52 22 62 6z m2917 -147 c58 -62 108 -122 111 -133 14 -55 -76 -18
-145 58 -60 67 -111 165 -96 180 7 7 15 11 18 10 3 -2 53 -54 112 -115z m-730
90 c23 -26 178 -297 173 -302 -7 -6 -87 59 -124 101 -18 21 -52 72 -77 115
-33 58 -41 80 -33 90 16 18 43 16 61 -4z m4803 -572 c94 -123 179 -235 189
-248 l20 -26 -25 13 c-128 67 -457 465 -524 635 -15 37 -10 34 77 -55 51 -52
170 -196 263 -319z m-6128 297 c31 -36 66 -89 60 -94 -7 -7 -137 -43 -137 -38
0 3 9 23 20 45 11 22 21 55 22 74 1 41 7 43 35 13z m7022 -174 c49 -65 90
-149 78 -161 -17 -16 -173 131 -183 174 -9 34 2 53 30 53 19 0 37 -16 75 -66z
m-7234 50 c9 -4 37 -47 62 -97 58 -116 117 -210 232 -371 50 -71 90 -136 89
-144 -5 -23 -32 -36 -62 -28 -79 20 -190 175 -306 430 -79 171 -81 178 -64
197 19 21 24 22 49 13z m-175 -169 c44 -118 124 -278 214 -430 35 -60 62 -113
60 -117 -3 -4 -23 -8 -45 -8 -51 0 -72 21 -126 125 -46 89 -213 488 -213 509
0 20 12 27 43 24 27 -3 32 -10 67 -103z m499 60 c86 -43 146 -140 157 -256 l7
-64 -28 25 c-45 42 -195 283 -195 315 0 9 9 6 59 -20z m5602 -8 c38 -29 107
-133 95 -144 -2 -3 -22 5 -45 16 -39 20 -76 69 -100 134 -14 35 -2 34 50 -6z
m-6304 -151 c20 -32 70 -133 113 -225 106 -232 167 -314 270 -366 26 -13 52
-30 59 -39 29 -34 -25 -85 -72 -67 -36 14 -153 145 -219 245 -33 50 -82 136
-108 191 -50 104 -150 363 -150 387 1 19 65 -57 107 -126z m5872 -15 c182
-253 356 -440 776 -836 517 -488 646 -629 827 -905 273 -415 444 -902 513
-1465 47 -378 66 -865 46 -1180 -35 -547 -101 -843 -426 -1896 -75 -243 -88
-275 -122 -311 -36 -38 -78 -43 -175 -24 -158 31 -283 34 -1198 26 -872 -8
-919 -9 -1010 -29 -53 -11 -132 -21 -180 -21 -53 0 -91 -5 -98 -12 -17 -17
-15 -48 5 -70 14 -16 35 -18 202 -18 102 0 362 7 576 14 844 31 1167 29 1530
-9 77 -8 157 -15 177 -15 60 0 88 -18 88 -56 0 -63 -80 -84 -250 -66 -62 7
-353 7 -835 2 -407 -5 -870 -10 -1030 -12 -263 -2 -291 -4 -307 -20 -23 -23
-23 -50 0 -78 17 -21 23 -22 362 -28 467 -9 1283 -9 1681 1 305 7 327 7 348
-10 31 -26 38 -82 13 -113 -19 -24 -22 -24 -143 -20 -193 8 -350 6 -814 -7
-784 -23 -3130 -35 -4335 -22 -1192 12 -1140 9 -1140 67 0 63 -39 59 690 73
604 11 705 11 1100 -6 464 -19 705 -17 1483 10 419 15 429 16 443 70 13 52 -2
62 -126 89 -95 21 -198 20 -376 0 -78 -9 -149 -14 -158 -11 -26 10 -21 72 9
95 22 17 46 20 222 25 189 5 303 19 331 40 18 14 15 51 -6 70 -21 20 -58 25
-235 36 -151 9 -177 20 -177 71 0 25 135 315 161 346 18 22 31 17 93 -30 101
-79 169 -84 226 -19 68 77 100 198 100 384 0 399 58 609 355 1299 306 711 524
1091 829 1445 164 190 287 405 365 640 98 292 75 435 -98 635 -257 296 -393
619 -441 1040 -27 243 -22 671 11 885 10 65 14 76 23 61 6 -10 49 -71 95 -135z
m2096 -150 c40 -135 71 -220 170 -466 114 -281 160 -417 190 -558 l23 -108 84
-87 c102 -107 131 -156 212 -353 35 -85 73 -173 85 -196 23 -47 27 -78 9 -89
-18 -11 -43 27 -124 188 -89 175 -148 246 -239 290 -69 32 -87 34 -105 12 -12
-13 -3 -26 62 -92 149 -152 218 -257 218 -334 0 -33 -3 -38 -23 -38 -15 0 -29
11 -41 31 -35 59 -149 170 -230 223 -45 30 -128 79 -186 110 -58 31 -115 67
-128 79 -29 27 -67 100 -77 147 -4 19 -36 157 -70 305 -99 419 -125 592 -125
831 0 120 1 124 24 139 30 20 66 6 66 -25 0 -271 58 -641 165 -1057 51 -200
76 -258 125 -291 18 -12 34 -21 36 -19 5 5 -44 257 -85 437 -72 319 -112 559
-110 662 1 61 66 -128 128 -375 63 -248 133 -457 153 -457 15 0 -15 255 -48
412 -41 194 -152 557 -249 813 -6 14 2 10 28 -14 29 -28 42 -53 62 -120z
m-448 97 c6 -7 13 -92 16 -188 9 -265 40 -470 127 -825 51 -208 56 -247 36
-264 -19 -16 -57 -11 -66 9 -4 8 -18 60 -30 115 -100 462 -132 669 -131 856 0
113 -1 118 -29 160 -35 52 -38 96 -10 127 23 24 72 29 87 10z m-3847 -80 c11
-12 20 -27 20 -32 0 -34 34 -226 55 -316 94 -391 263 -731 588 -1183 189 -264
385 -561 423 -643 18 -39 43 -107 55 -150 19 -71 21 -95 16 -234 -11 -308 -73
-555 -246 -989 -271 -677 -561 -1241 -904 -1756 -142 -213 -181 -259 -326
-383 -201 -173 -356 -348 -516 -580 -135 -197 -174 -222 -346 -222 -106 0
-239 -23 -291 -51 -21 -11 -24 -55 -4 -62 7 -3 90 -13 182 -22 93 -10 175 -19
182 -21 29 -8 0 -102 -41 -129 -22 -14 -34 -14 -143 2 -103 15 -206 17 -764
18 -502 0 -650 3 -667 13 -18 10 -23 22 -23 52 0 33 4 41 23 45 12 3 121 12
242 19 121 8 228 17 237 21 21 8 32 38 23 64 -3 11 -13 22 -23 27 -9 4 -120 9
-247 11 -258 5 -267 8 -285 74 -16 57 -4 117 46 246 57 145 68 199 61 299 -4
65 -12 98 -42 165 -219 498 -335 906 -455 1614 -66 387 -170 1302 -170 1491 0
125 24 210 116 411 235 514 413 971 569 1458 138 432 174 505 274 557 63 33
128 36 261 13 187 -32 357 -47 605 -52 466 -10 715 28 1235 186 218 67 250 71
280 39z m-3842 -114 c39 -67 74 -105 175 -187 60 -49 237 -275 237 -304 0 -22
-33 -53 -57 -53 -7 0 -27 30 -45 67 -53 107 -106 129 -164 66 -46 -49 -43 -68
19 -126 82 -77 217 -256 217 -288 0 -52 -51 -64 -69 -17 -9 22 -277 363 -347
441 -23 25 -34 47 -34 67 0 33 2 34 72 30 104 -4 115 41 38 170 -63 106 -107
196 -115 235 l-7 30 20 -30 c10 -16 37 -62 60 -101z m7271 -101 c38 -37 65
-107 51 -133 -13 -24 -40 -25 -79 -5 -40 20 -71 108 -51 145 15 28 45 25 79
-7z m-209 -5 c16 -41 52 -226 48 -255 -4 -37 -43 -45 -57 -11 -16 37 -54 266
-46 277 11 19 45 12 55 -11z m470 -173 c22 -130 80 -608 75 -613 -6 -6 -66
190 -86 278 -28 127 -43 320 -34 425 9 106 13 97 45 -90z m-6684 17 c6 -4 29
-41 50 -82 32 -64 38 -85 38 -140 1 -61 -17 -130 -34 -130 -10 0 -110 295
-110 324 0 30 30 46 56 28z m-1291 -117 c29 -59 41 -155 30 -241 l-8 -59 -19
55 c-10 30 -28 107 -39 170 -11 63 -22 126 -25 140 -5 24 -5 24 15 6 12 -11
32 -42 46 -71z m7730 18 c54 -54 80 -130 93 -264 8 -81 8 -82 -11 -58 -37 46
-66 117 -95 233 -17 64 -26 116 -22 116 4 0 20 -12 35 -27z m-6573 -298 c43
-79 76 -264 51 -288 -7 -8 -158 275 -168 315 -4 17 -1 31 10 42 16 16 19 15
49 -2 17 -10 43 -40 58 -67z m-722 34 c81 -20 133 -76 144 -151 3 -21 9 -56
12 -79 5 -31 16 -51 50 -82 43 -40 44 -43 44 -104 0 -35 -3 -63 -7 -63 -8 1
-344 472 -352 492 -3 9 42 4 109 -13z m522 -76 c17 -20 80 -168 98 -228 6 -22
10 -74 8 -115 l-3 -75 -34 90 c-33 89 -89 205 -133 276 -19 31 -20 39 -9 53
18 21 54 20 73 -1z m5088 -13 c31 -44 41 -88 34 -153 -6 -50 -9 -56 -22 -45
-30 25 -52 91 -52 161 0 37 4 67 9 67 5 0 19 -14 31 -30z m-5562 -408 c19 -40
33 -75 30 -77 -8 -8 -106 64 -137 101 -39 48 -60 109 -68 199 l-6 70 73 -110
c40 -60 89 -143 108 -183z m8685 168 c104 -129 183 -252 207 -325 12 -37 19
-69 16 -72 -3 -4 -6 -1 -6 4 0 20 -115 166 -234 296 -77 85 -116 136 -116 151
0 30 9 38 39 34 18 -2 46 -28 94 -88z m-8258 -192 c36 -113 75 -286 75 -329 0
-21 -5 -18 -50 26 -90 88 -124 195 -100 311 13 64 27 104 34 104 3 0 21 -51
41 -112z m-206 -39 c31 -29 51 -79 51 -127 0 -30 -8 -47 -36 -78 -54 -59 -86
-136 -92 -219 -6 -94 16 -170 75 -260 36 -55 48 -81 51 -121 8 -101 6 -100
-247 140 -129 122 -238 232 -242 244 -6 15 -2 28 10 44 16 19 22 21 44 11 14
-7 61 -56 104 -109 l78 -97 17 104 c10 57 29 181 43 274 14 94 30 180 35 193
13 30 77 31 109 1z m-406 -92 c34 -30 88 -72 119 -95 64 -47 70 -54 62 -75
-16 -42 -70 -19 -167 72 -46 42 -86 107 -87 139 0 20 9 15 73 -41z m-542 -101
c13 -28 3 -152 -12 -162 -16 -10 -39 63 -39 126 0 54 2 60 20 60 12 0 25 -10
31 -24z m8937 -194 c212 -89 446 -312 512 -489 33 -88 20 -91 -40 -6 -72 102
-264 293 -369 367 -46 33 -131 84 -190 114 l-106 55 61 -5 c34 -3 92 -19 132
-36z m-7893 -13 c68 -76 96 -180 49 -187 -35 -5 -71 34 -99 109 -22 58 -25 75
-16 95 15 33 23 31 66 -17z m5284 14 c35 -29 56 -153 27 -153 -8 0 -31 15 -50
34 -29 27 -36 41 -36 73 0 36 13 63 31 63 4 0 17 -8 28 -17z m304 -91 c11 -10
17 -30 17 -60 l0 -46 -31 30 c-24 22 -59 82 -59 99 0 8 58 -10 73 -23z m-491
-78 c21 -20 91 -235 86 -267 -2 -15 -11 -23 -29 -25 -23 -3 -29 4 -52 56 -40
88 -77 190 -77 210 0 40 40 54 72 26z m-5715 -94 c6 -14 9 -37 6 -52 -4 -23
-11 -28 -33 -28 -31 0 -45 13 -55 53 -11 42 0 59 37 55 23 -2 36 -10 45 -28z
m244 -39 c74 -49 148 -163 183 -279 19 -67 32 -197 19 -205 -5 -3 -38 53 -74
125 -68 139 -125 214 -206 269 -49 34 -56 66 -23 99 27 27 49 25 101 -9z
m6076 7 c40 -44 63 -93 63 -135 0 -77 -40 -66 -88 25 -53 99 -35 175 25 110z
m-272 -39 c15 -22 52 -75 84 -118 61 -83 95 -152 106 -216 l7 -40 -46 45 c-26
25 -63 65 -81 90 -80 106 -155 216 -155 228 0 14 36 52 50 52 5 0 21 -18 35
-41z m2613 -5 c142 -93 317 -336 339 -468 11 -70 -35 -30 -87 74 -90 181 -178
279 -307 342 -79 38 -104 63 -87 89 12 20 84 2 142 -37z m-8481 -216 c11 -13
37 -57 57 -98 20 -41 50 -100 67 -130 31 -57 33 -83 7 -149 -10 -26 -10 -26
-35 24 -51 100 -91 119 -137 64 -33 -38 -33 -76 -1 -120 76 -104 98 -143 120
-205 29 -81 31 -123 9 -166 l-16 -31 -51 94 c-27 52 -63 119 -78 150 -34 66
-49 75 -91 53 -27 -14 -31 -14 -49 2 -24 22 -99 170 -99 195 0 29 26 34 69 14
21 -9 51 -15 67 -13 40 4 55 53 61 198 3 63 10 121 15 128 17 20 63 14 85 -10z
m5731 -94 c37 -111 59 -226 83 -432 26 -219 23 -247 -26 -247 l-30 0 2 60 c5
131 -26 334 -76 498 -45 144 -46 152 -21 177 12 12 27 20 33 17 7 -2 22 -35
35 -73z m-172 -230 c34 -57 47 -143 39 -244 -6 -75 -9 -82 -21 -65 -29 39 -54
129 -64 223 -5 53 -12 112 -15 131 -4 33 -4 33 16 15 12 -11 32 -37 45 -60z
m363 20 c59 -63 81 -115 81 -194 0 -75 -23 -175 -35 -148 -15 36 -101 388 -94
388 3 0 25 -21 48 -46z m2789 -61 c38 -28 92 -99 92 -120 0 -21 -22 -16 -98
23 -92 45 -136 102 -118 149 5 14 11 13 48 -6 24 -12 58 -32 76 -46z m-8918
-211 c35 -26 87 -115 110 -188 37 -120 48 -292 19 -309 -12 -8 -30 31 -51 115
-13 53 -27 83 -47 104 l-29 29 -16 -26 c-16 -23 -16 -28 -2 -62 39 -91 59
-281 36 -339 -14 -38 -54 -35 -70 4 -7 17 -16 33 -21 35 -11 8 -107 -140 -120
-186 -16 -50 -6 -82 41 -133 34 -37 38 -45 26 -55 -10 -8 -30 -10 -60 -6 -35
6 -52 3 -71 -9 -41 -27 -32 -55 45 -133 76 -77 87 -109 52 -153 l-19 -23 -63
22 c-81 27 -96 27 -116 -4 -23 -35 -12 -55 57 -100 81 -52 89 -61 89 -95 0
-41 -30 -100 -51 -100 -9 0 -38 12 -63 28 -84 49 -91 52 -108 52 -21 0 -23
-25 -8 -66 6 -15 42 -61 80 -101 53 -56 70 -80 70 -102 0 -53 -22 -57 -93 -16
-60 33 -66 34 -81 20 -9 -9 -16 -30 -16 -47 0 -25 16 -47 85 -119 77 -80 85
-92 85 -127 0 -45 -30 -85 -58 -75 -9 4 -54 36 -100 72 -95 73 -102 71 -102
-18 0 -53 2 -56 51 -100 146 -132 149 -136 149 -178 0 -39 -14 -63 -36 -63 -7
0 -39 25 -70 55 -83 79 -127 73 -148 -19 -10 -43 14 -72 76 -90 107 -32 150
-76 132 -138 -13 -44 -32 -45 -84 -4 -64 48 -84 52 -115 22 -49 -49 -24 -100
82 -172 68 -46 73 -51 73 -85 0 -26 -16 -49 -35 -49 -6 0 -41 18 -78 40 -36
22 -73 40 -82 40 -27 0 -57 -60 -51 -103 6 -49 35 -81 109 -118 49 -25 57 -33
57 -58 0 -41 -19 -54 -59 -40 -40 14 -77 5 -84 -21 -4 -15 12 -41 60 -98 62
-72 133 -197 133 -232 0 -9 -7 -26 -16 -39 l-16 -22 -25 23 c-14 13 -44 64
-68 113 -43 94 -87 155 -110 155 -21 0 -37 -60 -26 -95 16 -51 67 -168 95
-215 32 -55 34 -96 6 -105 -28 -9 -47 9 -62 56 -24 83 -62 76 -52 -9 5 -51 4
-59 -18 -78 -31 -29 -104 -53 -169 -54 -30 -1 -82 -11 -117 -22 -61 -19 -64
-19 -83 -2 -33 30 -21 62 45 113 70 54 79 73 60 126 -14 41 -18 85 -8 85 3 0
14 -5 26 -11 27 -14 64 -4 83 24 8 12 19 63 25 112 5 50 25 146 44 215 19 69
55 217 80 330 25 113 95 403 155 645 114 460 162 666 208 900 23 119 27 166
27 310 0 157 -2 176 -27 254 -28 88 -34 184 -19 310 l7 54 22 -39 c12 -22 30
-77 42 -123 24 -99 31 -109 68 -95 24 8 28 14 25 44 -2 19 -5 100 -6 180 -1
80 -5 155 -10 168 -7 21 -6 22 18 11 21 -10 38 -9 86 6 34 10 63 22 66 27 4 5
-11 37 -32 70 -42 69 -40 81 17 111 41 22 111 16 149 -11z m8897 -80 c76 -64
85 -75 86 -114 2 -30 0 -33 -26 -31 -44 3 -125 60 -147 104 -50 98 -6 118 87
41z m-3201 -160 c70 -67 97 -123 71 -150 -15 -14 -20 -12 -61 22 -73 60 -127
151 -104 174 20 20 31 14 94 -46z m3203 -146 c35 -19 99 -89 112 -124 12 -31
3 -92 -13 -92 -21 0 -127 71 -156 105 -36 40 -46 68 -38 101 5 19 13 24 37 24
16 0 42 -6 58 -14z m-3334 -67 c58 -28 105 -83 105 -125 0 -44 -19 -47 -79
-13 -66 38 -106 95 -92 132 13 32 10 32 66 6z m3 -305 c44 -41 52 -53 37 -53
-67 -2 -125 39 -175 123 l-24 39 53 -28 c28 -16 77 -52 109 -81z m3369 25 c47
-29 84 -81 90 -129 l6 -40 -40 0 c-66 0 -164 75 -179 137 -4 16 0 31 12 44 22
24 58 20 111 -12z m-3524 -160 c60 -39 119 -108 115 -133 -6 -41 -33 -42 -107
-6 -107 51 -155 115 -116 154 24 24 56 20 108 -15z m-4769 -17 c19 -38 27
-101 18 -142 l-8 -35 -22 35 c-28 45 -35 82 -27 136 7 47 17 49 39 6z m8275
-188 c31 -12 45 -26 62 -60 12 -25 20 -47 18 -49 -2 -2 -43 20 -91 47 -56 34
-84 56 -81 65 7 18 44 17 92 -3z m-3597 -51 c52 -27 74 -45 86 -70 15 -31 15
-35 0 -49 -20 -21 -48 -14 -108 24 -48 30 -87 89 -77 116 9 23 20 21 99 -21z
m-5112 -250 c130 -366 191 -689 193 -1018 1 -143 -4 -195 -27 -330 -37 -214
-46 -456 -20 -565 26 -113 29 -185 9 -236 -47 -124 -145 -163 -330 -129 -98
17 -135 37 -135 71 0 8 -15 61 -34 117 -53 161 -61 219 -61 447 1 161 6 238
24 360 30 205 83 484 132 702 63 282 182 698 198 698 5 0 28 -53 51 -117z
m5094 -12 c35 -36 31 -81 -7 -81 -25 0 -135 62 -173 97 -26 24 -33 80 -13 100
13 13 146 -67 193 -116z m-4590 63 c22 -21 31 -64 19 -83 -12 -20 -79 -27 -99
-10 -20 17 -17 66 6 89 24 24 53 26 74 4z m8199 0 c55 -18 77 -45 77 -91 0
-29 -3 -33 -27 -33 -39 0 -127 43 -147 71 -9 13 -16 34 -16 46 0 19 5 23 33
23 18 0 55 -7 80 -16z m-3699 -257 c19 -13 26 -26 26 -50 0 -59 -36 -71 -123
-41 -60 20 -107 72 -107 119 0 18 6 35 13 38 15 5 156 -43 191 -66z m3776 -16
c20 -15 25 -27 25 -62 0 -50 4 -49 -109 -26 -99 21 -137 73 -76 105 33 17 127
7 160 -17z m-8211 -33 c14 -24 14 -28 -3 -47 -14 -16 -31 -21 -66 -21 -52 0
-70 13 -70 50 0 39 19 51 75 48 42 -3 52 -7 64 -30z m4375 -207 c20 -17 21
-55 1 -71 -20 -16 -49 -8 -117 35 -41 26 -62 48 -77 78 -12 24 -21 48 -21 55
0 11 184 -73 214 -97z m3826 4 c33 -32 64 -101 58 -133 -3 -19 -17 -10 -116
65 -124 95 -127 106 -29 100 46 -3 63 -9 87 -32z m-8173 -37 c24 -22 30 -72
14 -113 -7 -19 -10 -18 -45 17 -27 27 -36 44 -36 70 0 54 26 65 67 26z m4155
-115 c138 -90 146 -140 37 -214 -33 -22 -59 -41 -59 -44 0 -2 -3 -10 -6 -18
-3 -9 9 -31 27 -52 l33 -37 -34 -226 c-20 -137 -38 -233 -47 -242 -22 -24 -43
-1 -73 83 -31 89 -61 127 -100 127 -44 0 -50 -14 -43 -121 9 -148 -19 -176
-136 -143 -46 13 -65 14 -73 6 -7 -7 -15 -53 -18 -104 -10 -154 -31 -173 -195
-173 -106 0 -113 -2 -191 -38 -93 -42 -116 -45 -144 -17 -30 30 -25 56 18 87
171 128 315 261 363 335 41 64 59 67 127 25 31 -19 60 -33 64 -31 17 11 6 55
-27 120 -52 100 -45 124 36 124 62 0 75 16 61 73 -19 74 -22 106 -12 132 12
31 37 32 90 5 54 -28 78 -26 91 7 13 34 4 69 -27 110 -13 17 -28 43 -34 57 -9
25 -8 26 23 26 17 0 55 -10 84 -22 51 -21 53 -21 73 -3 30 27 25 51 -25 104
-46 49 -57 85 -33 109 23 23 64 11 150 -45z m3885 -46 c21 -18 54 -44 73 -57
56 -37 110 -92 131 -132 32 -63 26 -71 -32 -37 -131 77 -269 188 -269 216 0
16 29 43 46 43 8 0 31 -15 51 -33z m-7963 -126 c21 -23 38 -80 30 -103 -7 -25
-70 -25 -82 0 -18 33 -24 93 -11 108 16 19 43 18 63 -5z m8006 -198 c66 -43
81 -48 142 -51 64 -4 69 -6 74 -31 4 -14 17 -68 30 -120 24 -94 31 -185 15
-209 -6 -10 -34 20 -100 102 -129 162 -162 184 -197 131 -22 -34 -14 -59 51
-155 70 -102 78 -121 59 -149 -20 -28 -28 -27 -111 16 -39 21 -74 35 -77 32
-3 -3 3 -23 14 -44 16 -32 20 -58 19 -140 -1 -109 6 -138 45 -180 14 -15 26
-36 26 -46 0 -21 -31 -33 -61 -24 -33 11 -114 -14 -166 -51 -55 -39 -95 -49
-158 -40 -45 7 -75 27 -75 50 0 7 31 53 69 103 122 161 178 287 200 444 6 42
22 112 36 155 14 44 28 113 31 154 3 41 7 81 10 88 7 24 51 11 124 -35z
m-7926 -122 c11 -12 16 -31 14 -53 -3 -29 -8 -35 -47 -47 -58 -18 -75 -7 -79
50 -3 32 1 47 14 56 26 19 78 16 98 -6z m-65 -237 c42 -3 86 -7 98 -10 30 -6
57 -47 48 -74 -6 -19 -12 -21 -60 -15 -52 7 -54 6 -61 -19 -12 -48 3 -74 57
-101 85 -43 89 -93 15 -173 -24 -26 -46 -60 -50 -77 -4 -16 -15 -38 -24 -48
-24 -26 -32 -5 -32 88 0 91 -13 125 -54 140 -36 12 -49 -4 -66 -86 -13 -61
-34 -85 -51 -58 -16 26 -9 74 21 137 17 35 30 73 30 84 0 12 -20 40 -46 64
-43 40 -46 45 -40 81 3 21 9 56 12 79 l6 41 60 -24 c38 -16 89 -26 137 -29z
m3334 -685 c52 -28 49 -51 -20 -176 -65 -116 -78 -119 -85 -23 -5 72 -29 110
-82 127 -69 24 -88 7 -232 -200 -88 -127 -138 -190 -157 -198 -15 -6 -30 -9
-33 -7 -12 13 14 69 71 153 34 49 69 113 79 142 31 93 83 150 164 179 47 17
264 19 295 3z m4509 -56 c51 -6 55 -28 20 -110 -17 -37 -44 -115 -62 -173 -50
-164 -130 -300 -175 -300 -16 0 -17 7 -12 58 4 31 25 122 47 202 22 80 45 184
51 232 13 101 20 106 131 91z m-232 -80 c-55 -62 -90 -133 -144 -290 -24 -70
-53 -148 -64 -173 l-21 -45 0 74 c-2 167 97 382 208 453 64 40 69 35 21 -19z
m-7703 -185 c19 -16 16 -43 -8 -64 -51 -46 -89 -167 -89 -282 0 -30 -5 -72
-12 -94 -12 -40 -81 -128 -92 -117 -11 11 104 542 121 562 18 19 54 17 80 -5z
m227 6 c4 -9 4 -32 0 -50 -3 -18 -1 -72 6 -120 11 -84 5 -204 -10 -187 -4 4
-31 64 -60 133 -29 69 -59 134 -66 145 -21 30 -17 42 23 70 43 29 98 33 107 9z
m-826 -90 c27 -18 30 -69 5 -96 -15 -16 -36 -18 -252 -18 l-236 1 25 21 c35
29 140 76 208 93 81 19 222 19 250 -1z m-1055 -144 c29 -44 59 -49 93 -15 32
32 51 27 59 -17 5 -26 -8 -70 -60 -208 -37 -96 -69 -183 -72 -192 -3 -10 -9
-18 -13 -18 -16 0 -21 37 -14 110 5 62 3 83 -11 110 l-18 34 -17 -35 c-10 -18
-41 -99 -70 -179 -67 -186 -150 -353 -167 -336 -3 2 2 28 11 58 8 29 33 136
56 238 58 263 107 416 159 499 17 27 15 28 64 -49z m-306 -34 c3 -2 -7 -26
-20 -53 -14 -27 -73 -163 -132 -303 -59 -140 -118 -275 -131 -300 l-24 -45 6
40 c14 101 51 220 130 419 46 119 84 219 84 224 0 19 27 33 54 28 16 -4 31 -8
33 -10z m1278 -115 c25 -5 31 -12 33 -39 6 -61 2 -62 -232 -62 -230 0 -236 1
-236 55 0 53 7 55 215 54 104 -1 204 -4 220 -8z m21653 -857 c197 -40 398
-164 523 -321 76 -96 151 -247 180 -364 l24 -94 0 -3290 c0 -3513 2 -3334 -47
-3480 -61 -178 -197 -358 -352 -464 -68 -47 -201 -108 -291 -133 l-80 -23
-4082 -3 -4083 -2 0 247 c0 174 -5 268 -14 314 -37 173 -158 299 -333 344 -51
13 -1469 15 -12203 15 -10362 0 -12153 -2 -12197 -14 -166 -44 -284 -163 -328
-331 -12 -46 -15 -118 -15 -317 l0 -258 -4082 2 -4083 3 -80 23 c-100 28 -230
89 -309 146 -70 50 -178 160 -225 228 -48 71 -108 203 -133 293 l-23 80 -3
3265 c-2 2325 0 3289 8 3350 36 275 199 527 433 668 82 49 202 99 282 116 62
13 2533 14 20753 15 18836 1 20690 0 20760 -15z m-20313 -8084 c91 -13 201
-67 263 -129 93 -93 142 -222 142 -376 0 -105 -17 -180 -61 -266 -112 -222
-411 -310 -656 -194 -169 79 -263 244 -263 460 0 213 93 376 263 460 99 49
191 62 312 45z m1430 0 c249 -36 409 -234 409 -505 0 -335 -243 -551 -570
-505 -265 36 -431 258 -411 549 17 252 172 426 411 461 73 11 83 11 161 0z
m5200 -21 c65 -20 165 -82 165 -102 0 -7 -13 -28 -28 -47 l-29 -33 -54 30
c-86 49 -158 66 -263 61 -110 -5 -164 -27 -234 -92 -182 -170 -145 -545 64
-658 105 -56 264 -63 379 -17 l60 24 3 113 3 112 -84 0 c-95 0 -107 7 -107 62
l0 38 150 0 150 0 0 -194 0 -193 -57 -31 c-95 -50 -165 -66 -288 -66 -86 0
-126 4 -181 22 -227 70 -355 267 -341 522 9 150 57 262 153 350 59 54 172 107
254 119 84 12 209 3 285 -20z m-17878 -4 c78 -23 142 -72 177 -135 29 -51 31
-62 31 -155 0 -114 -15 -153 -82 -216 -77 -74 -162 -99 -333 -99 l-110 0 0
-190 0 -190 -65 0 -65 0 0 500 0 500 198 0 c148 0 211 -4 249 -15z m823 -323
c0 -377 3 -397 65 -469 52 -61 121 -86 215 -81 42 3 89 12 106 21 47 24 94 76
118 127 20 42 21 65 24 393 l3 347 64 0 65 0 0 -333 c0 -265 -3 -345 -15 -391
-53 -202 -245 -316 -464 -276 -173 31 -288 154 -311 332 -5 40 -10 207 -10
371 l0 297 70 0 70 0 0 -338z m1735 314 c97 -44 141 -102 151 -205 11 -101
-39 -182 -146 -236 l-35 -18 40 -12 c121 -36 175 -103 175 -217 -1 -114 -43
-186 -139 -237 -76 -40 -152 -51 -378 -51 l-183 0 0 501 0 501 238 -4 c201 -3
243 -7 277 -22z m3795 -26 l0 -50 -162 -2 -163 -3 -3 -447 -2 -448 -65 0 -65
0 0 450 0 450 -160 0 -160 0 0 50 0 50 390 0 390 0 0 -50z m973 -443 c108
-270 197 -495 197 -500 0 -4 -25 -7 -55 -7 -70 0 -76 7 -135 157 l-45 118
-229 0 -228 0 -49 -125 c-27 -69 -56 -131 -66 -137 -9 -7 -41 -13 -71 -13 -47
0 -53 2 -47 18 21 55 388 968 392 975 2 4 35 7 72 7 l67 0 197 -493z m1047
105 l295 -384 3 386 2 386 55 0 55 0 0 -500 0 -500 -41 0 c-32 0 -47 6 -67 29
-15 16 -151 191 -302 389 -151 199 -277 361 -280 362 -3 0 -4 -175 -2 -390 l2
-390 -60 0 -60 0 0 501 0 500 53 -3 52 -3 295 -383z m1523 368 c161 -50 276
-178 313 -349 52 -249 -48 -481 -249 -576 -94 -45 -167 -55 -409 -55 l-198 0
0 500 0 500 239 0 c211 0 246 -2 304 -20z m4195 -9 c62 -28 123 -93 140 -149
15 -50 15 -139 0 -183 -29 -84 -103 -155 -190 -181 -38 -11 -38 -11 -19 -32
10 -12 84 -111 165 -221 l147 -200 -61 -3 c-41 -2 -69 2 -84 11 -12 8 -86 103
-164 211 l-143 196 -75 0 -74 0 0 -210 0 -210 -70 0 -70 0 0 501 0 501 223 -4
c208 -3 225 -5 275 -27z m4982 -2 c105 -50 152 -123 152 -240 1 -124 -70 -223
-192 -266 l-49 -17 23 -26 c26 -28 306 -408 306 -415 0 -11 -128 -4 -144 8 -9
7 -81 100 -159 207 l-142 195 -78 3 -77 3 0 -211 0 -210 -65 0 -65 0 0 501 0
501 218 -4 c210 -3 219 -4 272 -29z m830 -469 l0 -500 -65 0 -65 0 0 500 0
500 65 0 65 0 0 -500z m700 55 l0 -445 215 0 215 0 0 -55 0 -55 -280 0 -280 0
0 500 0 500 65 0 65 0 0 -445z m1030 0 l0 -445 215 0 215 0 0 -55 0 -55 -280
0 -280 0 0 500 0 500 65 0 65 0 0 -445z m-17351 109 c99 -29 181 -140 181
-244 0 -125 -108 -244 -232 -257 -241 -24 -380 266 -209 437 75 75 157 95 260
64z m11571 -20 c88 -48 133 -124 133 -225 0 -235 -287 -346 -445 -171 -128
142 -65 362 122 423 47 16 135 3 190 -27z"/>
<path d="M17340 11823 c-113 -1 -392 -7 -620 -14 -228 -7 -429 -11 -446 -10
-17 1 -43 -3 -58 -9 -22 -8 -26 -16 -26 -47 0 -21 4 -44 8 -51 11 -17 3608
-18 3629 -1 14 12 17 56 7 84 -4 8 -21 23 -38 33 -29 16 -114 17 -1141 17
-610 0 -1202 0 -1315 -2z"/>
<path d="M15375 11517 c-20 -31 -13 -62 18 -80 30 -16 1197 -24 1197 -7 0 27
-34 73 -63 85 -25 10 -159 15 -584 21 l-551 7 -17 -26z"/>
<path d="M17772 11530 c-1093 -6 -1012 0 -1012 -67 0 -21 6 -35 18 -41 9 -5
654 -10 1465 -11 1328 -3 1447 -1 1447 13 0 38 -29 83 -63 99 -31 15 -80 17
-449 15 -227 -2 -860 -5 -1406 -8z"/>
<path d="M28366 11053 c-474 -2 -673 -6 -683 -14 -16 -14 -17 -53 0 -66 23
-19 523 -26 2082 -31 853 -2 1624 -5 1715 -6 l165 -1 3 36 c2 26 -3 40 -19 55
-20 18 -44 19 -443 25 -409 6 -1451 7 -2820 2z"/>
<path d="M23982 11038 c-16 -16 -15 -43 2 -57 16 -13 296 -27 349 -17 28 5 38
13 43 32 13 50 -3 54 -200 54 -128 0 -186 -4 -194 -12z"/>
<path d="M26504 11036 c-3 -8 -4 -25 -2 -38 l3 -23 510 -6 c333 -4 514 -3 523
3 19 16 14 56 -7 68 -13 6 -194 10 -521 10 -424 0 -501 -2 -506 -14z"/>
<path d="M25870 11035 c0 -9 108 -36 185 -46 44 -6 119 -7 168 -4 83 7 87 8
87 31 l0 24 -220 0 c-121 0 -220 -2 -220 -5z"/>
<path d="M31843 11014 c-16 -26 -16 -27 6 -45 29 -23 83 -24 116 -3 33 21 32
28 -9 53 -47 30 -91 28 -113 -5z"/>
<path d="M16968 11010 c-47 -37 -34 -100 24 -119 70 -22 384 -33 1124 -38
l772 -5 21 21 c31 31 30 115 -1 135 -19 12 -174 15 -968 21 l-945 7 -27 -22z"/>
<path d="M24890 11024 c-219 -19 -300 -27 -296 -32 14 -13 271 -31 455 -32
197 0 447 14 521 29 82 17 -526 48 -680 35z"/>
<path d="M16327 11013 c-4 -3 -7 -19 -7 -34 0 -38 24 -49 103 -49 35 0 112 -5
171 -11 82 -8 110 -8 122 1 17 15 19 71 2 88 -13 13 -379 18 -391 5z"/>
<path d="M25298 30574 c-36 -78 -116 -306 -132 -379 l-6 -30 25 30 c35 42 89
149 113 225 24 75 55 240 45 240 -2 0 -22 -39 -45 -86z"/>
<path d="M23754 30345 c-7 -53 2 -137 20 -180 13 -29 13 -28 21 42 7 72 -6
166 -25 178 -5 3 -12 -15 -16 -40z"/>
<path d="M15174 30318 c3 -9 10 -36 17 -60 6 -24 17 -101 25 -173 l13 -130 -3
135 c-2 124 -4 139 -29 190 -15 30 -25 47 -23 38z"/>
<path d="M15545 28993 c-18 -43 -24 -92 -18 -148 l6 -59 19 44 c10 24 22 63
25 86 9 70 -13 123 -32 77z"/>
<path d="M19074 27822 c12 -20 130 -99 165 -111 41 -13 98 -15 105 -2 8 12
-189 109 -238 117 -28 5 -37 4 -32 -4z"/>
<path d="M18963 27151 c-104 -38 -190 -116 -241 -221 -22 -46 -27 -68 -27
-137 0 -45 5 -87 11 -93 7 -7 53 55 158 215 135 207 164 256 155 255 -2 -1
-27 -9 -56 -19z"/>
<path d="M18490 26895 c-21 -25 -2 -67 60 -127 33 -32 64 -58 69 -58 11 0 -93
193 -107 198 -5 1 -15 -4 -22 -13z"/>
<path d="M18382 26784 c-12 -8 -22 -21 -22 -27 0 -14 250 -280 257 -274 2 3
-6 30 -18 62 -29 77 -135 234 -166 246 -30 11 -25 12 -51 -7z"/>
<path d="M18268 26679 c-25 -14 -22 -37 5 -50 12 -6 29 -25 37 -42 8 -18 47
-56 85 -85 39 -30 77 -65 85 -78 17 -28 20 -29 43 -11 14 11 7 23 -69 117
-126 155 -147 172 -186 149z"/>
<path d="M18170 26524 c0 -16 75 -106 122 -145 110 -92 201 -162 193 -148 -33
57 -103 144 -152 190 -55 50 -163 119 -163 103z"/>
<path d="M18025 26390 c-19 -7 -19 -7 2 -14 56 -18 228 -143 337 -245 41 -40
47 -43 41 -21 -23 77 -143 208 -228 249 -52 25 -126 40 -152 31z"/>
<path d="M18801 26248 c5 -18 9 -34 9 -36 0 -6 66 -42 78 -42 7 0 12 13 12 30
0 40 -39 80 -79 80 -29 0 -29 -1 -20 -32z"/>
<path d="M18138 26135 c190 -127 205 -135 218 -118 12 16 11 20 -9 33 -12 8
-62 48 -112 88 -107 87 -178 124 -248 129 l-52 5 203 -137z"/>
<path d="M17875 26135 c17 -14 75 -54 130 -88 55 -34 124 -86 154 -115 56 -56
75 -60 100 -20 15 25 20 20 -124 130 -96 74 -166 107 -237 114 l-53 5 30 -26z"/>
<path d="M17740 26023 c0 -5 23 -20 52 -34 29 -13 118 -67 198 -119 80 -53
151 -100 158 -104 8 -5 5 8 -7 33 -56 108 -214 215 -338 227 -39 4 -63 3 -63
-3z"/>
<path d="M17668 25878 c-40 -14 -34 -25 17 -33 104 -15 243 -79 319 -146 50
-44 50 -44 30 -11 -33 57 -123 140 -187 172 -63 32 -126 38 -179 18z"/>
<path d="M17315 24836 c-17 -7 -37 -21 -45 -31 -14 -17 -11 -18 60 -13 41 3
88 12 104 20 l30 16 -53 11 c-63 13 -59 13 -96 -3z"/>
<path d="M16653 24803 c-28 -4 -33 -8 -33 -32 l0 -28 113 -6 c61 -4 182 -10
268 -14 154 -6 157 -6 163 15 4 12 2 30 -4 42 -9 17 -20 20 -88 20 -42 0 -147
2 -232 4 -85 2 -170 2 -187 -1z"/>
<path d="M20691 25522 c-23 -44 18 -106 78 -118 l34 -7 -7 37 c-11 56 -25 82
-53 95 -33 15 -41 14 -52 -7z"/>
<path d="M21926 25028 l-30 -11 45 -18 c24 -10 66 -18 93 -18 43 -1 47 1 35
15 -33 40 -88 52 -143 32z"/>
<path d="M22380 25026 c0 -2 25 -21 56 -41 60 -40 172 -84 213 -85 24 0 24 0
5 21 -10 12 -37 31 -59 44 -61 35 -215 79 -215 61z"/>
<path d="M20547 24984 c-14 -14 -7 -54 13 -74 42 -42 95 -14 88 48 -3 24 -7
27 -48 30 -25 2 -49 0 -53 -4z"/>
<path d="M21521 24943 c-7 -3 39 -26 105 -53 217 -86 303 -134 689 -386 l30
-19 -29 38 c-73 95 -297 263 -451 337 -131 63 -298 103 -344 83z"/>
<path d="M22257 24838 c-11 -32 53 -107 113 -131 47 -20 120 -31 120 -19 0 18
-120 123 -162 142 -51 23 -65 24 -71 8z"/>
<path d="M22807 24743 c-4 -3 -7 -10 -7 -15 0 -4 109 -89 242 -188 208 -155
244 -178 256 -166 12 12 11 19 -13 50 -57 75 -211 196 -350 275 -86 49 -114
59 -128 44z"/>
<path d="M22686 24571 c-23 -25 -17 -33 52 -77 84 -54 135 -100 213 -191 51
-61 77 -83 94 -83 13 0 27 5 30 11 8 12 -339 359 -359 359 -7 0 -21 -9 -30
-19z"/>
<path d="M22510 24389 c0 -21 85 -99 161 -148 79 -50 80 -50 62 -20 -28 49
-102 128 -136 146 -44 22 -87 33 -87 22z"/>
<path d="M21628 24193 c22 -27 86 -100 142 -163 116 -131 179 -216 226 -304
37 -68 44 -57 15 25 -59 171 -184 342 -325 440 -89 63 -110 63 -58 2z"/>
<path d="M22580 24053 c1 -37 150 -216 166 -200 11 11 -41 94 -94 149 -51 54
-72 69 -72 51z"/>
<path d="M23824 23733 c127 -181 152 -215 180 -235 l29 -21 -7 39 c-9 50 -49
138 -82 182 -27 34 -113 95 -152 107 -19 5 -14 -6 32 -72z"/>
<path d="M23586 23557 c-17 -12 -3 -35 179 -288 108 -151 201 -276 206 -277 5
-2 16 1 24 8 11 9 8 21 -22 73 -86 148 -341 497 -362 497 -4 0 -15 -6 -25 -13z"/>
<path d="M22881 23530 c17 -36 120 -201 231 -370 92 -141 199 -318 272 -450
20 -36 36 -62 36 -58 0 19 -31 150 -48 198 -27 78 -87 193 -144 279 -81 119
-375 460 -347 401z"/>
<path d="M23298 23460 c12 -19 46 -72 75 -118 134 -215 210 -323 272 -390 37
-40 69 -71 71 -69 7 7 -135 258 -198 348 -65 96 -162 206 -211 241 l-32 23 23
-35z"/>
<path d="M21620 23472 c0 -22 70 -254 106 -349 68 -182 146 -318 262 -455 36
-43 67 -78 70 -78 2 0 -7 19 -21 43 -117 201 -262 492 -357 717 -54 129 -60
141 -60 122z"/>
<path d="M28151 23457 c-17 -17 -13 -34 14 -55 26 -21 122 -49 132 -39 7 7
-31 56 -58 75 -31 22 -76 31 -88 19z"/>
<path d="M26330 23372 c-20 -17 -23 -24 -14 -39 11 -18 23 -22 123 -42 62 -13
76 -6 62 32 -22 57 -125 87 -171 49z"/>
<path d="M27985 23278 c283 -235 470 -474 680 -868 l66 -125 -4 80 c-3 59 -12
101 -36 162 -105 270 -428 628 -675 749 l-71 35 40 -33z"/>
<path d="M21930 23247 c0 -44 20 -95 46 -119 20 -17 74 -35 74 -24 0 20 -48
102 -81 138 l-38 43 -1 -38z"/>
<path d="M24240 23058 c39 -65 134 -240 211 -390 219 -424 312 -577 454 -748
87 -104 118 -130 68 -55 -80 118 -156 251 -310 538 -209 390 -338 599 -452
727 -36 40 -33 33 29 -72z"/>
<path d="M21541 23130 c-2 -26 66 -284 104 -397 45 -135 115 -295 173 -398 50
-90 163 -258 168 -252 8 8 -98 262 -221 533 -104 229 -177 401 -218 514 -5 13
-6 13 -6 0z"/>
<path d="M27716 23132 c5 -4 34 -27 64 -50 90 -67 211 -193 397 -415 97 -114
178 -206 181 -203 9 10 -90 196 -145 274 -107 151 -251 277 -410 360 -76 39
-109 52 -87 34z"/>
<path d="M26224 23065 c16 -64 53 -123 122 -192 72 -73 105 -88 132 -61 17 17
4 34 -134 163 -109 103 -126 116 -120 90z"/>
<path d="M27421 23007 c-22 -11 -13 -21 232 -262 140 -137 285 -287 322 -332
69 -86 95 -100 115 -63 9 17 1 33 -55 107 -140 186 -329 378 -510 518 -61 48
-67 50 -104 32z"/>
<path d="M25870 22981 c0 -6 64 -77 143 -158 79 -82 154 -169 168 -193 26 -48
62 -61 82 -29 8 12 -8 38 -76 120 -108 132 -167 189 -241 233 -62 38 -76 42
-76 27z"/>
<path d="M27030 22961 c0 -31 38 -68 102 -100 34 -17 64 -29 66 -26 7 7 -39
70 -69 93 -13 11 -41 27 -62 35 -35 15 -37 15 -37 -2z"/>
<path d="M25577 22855 c17 -14 61 -61 97 -104 68 -83 115 -124 155 -136 19 -6
7 13 -52 83 -79 93 -128 137 -184 166 -46 23 -53 20 -16 -9z"/>
<path d="M24142 22679 c66 -114 127 -237 253 -509 137 -298 266 -543 272 -523
7 19 -35 178 -73 280 -123 329 -356 731 -457 784 -19 11 -19 9 5 -32z"/>
<path d="M27332 22708 c-7 -7 -12 -19 -12 -27 0 -8 51 -66 114 -130 151 -155
245 -266 317 -376 88 -135 82 -128 106 -121 51 16 35 67 -65 211 -103 149
-204 265 -330 377 -87 78 -108 88 -130 66z"/>
<path d="M23915 22618 c3 -18 20 -60 37 -93 16 -33 47 -94 68 -135 37 -73 61
-142 155 -445 56 -180 89 -246 161 -318 45 -45 154 -117 179 -117 4 0 -7 17
-25 38 -105 125 -160 237 -261 529 -100 294 -151 396 -257 521 -51 60 -66 65
-57 20z"/>
<path d="M21501 22452 c-2 -128 49 -299 128 -432 42 -71 120 -158 159 -179
l23 -12 -25 39 c-49 78 -125 241 -190 407 -37 94 -73 186 -81 205 l-14 35 0
-63z"/>
<path d="M28400 22377 c0 -4 9 -32 21 -62 21 -57 62 -95 102 -95 26 0 22 10
-30 75 -44 53 -93 96 -93 82z"/>
<path d="M28170 22175 c-11 -13 -5 -27 35 -93 27 -42 64 -103 83 -135 19 -32
37 -55 39 -53 9 8 -37 148 -64 198 -14 25 -38 58 -53 73 -24 23 -28 24 -40 10z"/>
<path d="M23718 11809 c-26 -15 -23 -65 3 -80 30 -16 115 -6 140 17 12 11 19
28 17 43 -3 25 -6 26 -73 28 -38 2 -78 -2 -87 -8z"/>
<path d="M19920 9565 c0 -168 1 -175 20 -175 13 0 20 7 20 20 0 38 43 133 79
173 54 60 99 77 209 77 l92 0 0 -550 c0 -607 1 -597 -61 -619 -18 -6 -52 -11
-75 -11 -37 0 -44 -3 -44 -20 0 -20 7 -20 340 -20 333 0 340 0 340 20 0 17 -7
20 -47 20 -57 0 -109 28 -123 66 -6 15 -10 241 -10 571 l0 545 108 -4 c101 -3
112 -5 151 -33 48 -33 94 -104 117 -182 12 -40 20 -53 35 -53 18 0 19 9 19
175 l0 175 -585 0 -585 0 0 -175z"/>
<path d="M21790 9720 c0 -17 7 -20 50 -20 62 0 103 -20 119 -57 8 -21 11 -173
9 -565 l-3 -538 -27 -27 c-22 -22 -39 -27 -88 -31 -50 -4 -60 -7 -60 -23 0
-18 14 -19 340 -19 326 0 340 1 340 19 0 16 -10 19 -61 23 -54 4 -66 9 -90 36
l-29 32 0 255 0 255 225 0 225 0 0 -250 c0 -279 -4 -299 -61 -319 -18 -6 -52
-11 -75 -11 -37 0 -44 -3 -44 -20 0 -20 7 -20 340 -20 333 0 340 0 340 20 0
17 -7 20 -49 20 -61 0 -111 31 -123 78 -5 18 -7 269 -6 558 l3 526 33 29 c27
25 41 29 87 29 48 0 55 2 55 20 0 20 -7 20 -340 20 -333 0 -340 0 -340 -20 0
-17 7 -20 50 -20 56 0 104 -20 120 -49 6 -12 10 -114 10 -260 l0 -241 -225 0
-225 0 0 235 c0 160 4 242 12 260 16 36 57 55 118 55 43 0 50 3 50 20 0 20 -7
20 -340 20 -333 0 -340 0 -340 -20z"/>
<path d="M23902 9723 c2 -14 17 -19 65 -23 51 -4 68 -10 90 -33 l28 -27 3
-521 c2 -345 -1 -533 -8 -559 -14 -51 -48 -74 -119 -80 -43 -4 -57 -9 -59 -22
-3 -17 29 -18 565 -18 l568 0 28 206 c16 113 26 208 23 211 -14 14 -35 -10
-51 -56 -22 -66 -85 -161 -130 -195 -63 -48 -135 -75 -235 -86 -124 -14 -206
-5 -237 26 -23 23 -23 25 -23 269 l0 245 43 0 c104 0 180 -82 213 -226 13 -60
20 -74 35 -74 18 0 19 13 19 340 0 298 -2 341 -15 347 -21 8 -22 7 -39 -73
-31 -150 -91 -220 -200 -231 l-56 -6 0 262 0 261 143 0 c160 0 210 -10 279
-58 50 -35 90 -100 113 -187 17 -67 19 -70 40 -62 13 6 15 34 15 197 l0 190
-551 0 c-519 0 -550 -1 -547 -17z"/>
<path d="M2950 8871 l0 -69 63 -7 c184 -21 296 -132 329 -325 18 -104 19
-3884 1 -3975 -17 -92 -50 -169 -87 -207 -53 -54 -99 -72 -206 -78 l-95 -5 -3
-67 -3 -68 508 0 c279 0 619 -3 756 -7 l247 -6 0 70 0 71 -98 4 c-85 3 -104 7
-145 31 -54 32 -109 101 -132 167 -27 76 -34 326 -35 1149 l0 784 73 -6 c39
-3 266 -18 503 -33 l431 -28 6 -706 c7 -817 0 -1086 -32 -1171 -51 -135 -124
-186 -280 -196 l-91 -6 0 -58 c0 -32 3 -60 8 -62 4 -3 826 -6 1827 -8 l1820
-4 3 56 3 56 -83 11 c-147 21 -227 78 -288 207 -55 118 -53 33 -56 1830 l-4
1670 131 -450 c256 -885 611 -2101 798 -2733 105 -353 191 -644 191 -647 0 -3
12 -5 28 -5 l27 0 159 538 c156 531 687 2302 848 2830 l83 273 6 -1498 c3
-824 3 -1569 -2 -1655 -6 -139 -10 -164 -34 -215 -32 -70 -47 -87 -104 -121
-38 -22 -61 -27 -150 -32 l-106 -5 -3 -57 -3 -58 1116 0 1115 0 0 54 0 53 -63
7 c-163 16 -242 59 -290 156 -19 39 -22 61 -21 155 0 123 17 195 117 505 l53
165 270 -2 c148 -1 377 -5 509 -8 l241 -7 109 -342 c96 -301 109 -351 112
-426 4 -73 1 -90 -17 -118 -32 -51 -105 -80 -223 -88 l-98 -7 3 -51 3 -51
2323 -3 2322 -2 0 49 0 50 -57 6 c-158 19 -231 47 -275 107 -37 48 -48 91 -48
178 0 97 28 207 112 445 l63 180 63 0 c34 -1 262 -2 506 -3 l444 -2 50 -142
c157 -450 176 -511 176 -585 1 -86 -16 -116 -88 -152 -38 -19 -69 -25 -147
-29 l-99 -5 0 -48 0 -49 700 0 700 0 0 45 c0 28 -5 47 -12 49 -110 30 -134 41
-179 83 -58 54 -130 190 -212 398 -44 112 -933 2593 -1057 2953 -28 79 -36 92
-55 92 -19 0 -27 -12 -50 -72 -84 -228 -578 -1580 -785 -2153 -283 -784 -314
-864 -388 -1009 -61 -121 -136 -207 -211 -244 -25 -12 -46 -20 -48 -18 -2 1
17 243 42 537 25 294 46 550 47 569 l3 35 -44 0 -43 0 -48 -175 c-102 -374
-199 -571 -351 -715 -143 -134 -253 -165 -592 -165 -338 1 -399 15 -447 110
-39 76 -41 178 -38 1640 3 1322 4 1407 21 1444 27 61 64 104 110 128 35 19 62
23 170 26 l127 4 0 49 c0 27 -1 49 -2 49 -24 0 -977 55 -1206 70 -172 11 -317
20 -323 20 -6 0 -9 -22 -7 -52 l3 -53 85 -7 c106 -9 161 -30 218 -82 63 -58
82 -102 93 -215 6 -57 9 -683 7 -1556 l-3 -1460 -35 -70 c-49 -97 -130 -147
-214 -131 -88 17 -165 112 -252 309 -45 103 -745 2190 -1075 3205 -82 251 -94
282 -113 282 -25 0 -14 29 -682 -1955 -484 -1438 -467 -1389 -546 -1553 -68
-139 -129 -212 -217 -256 -46 -24 -57 -26 -86 -16 -47 16 -120 83 -144 134
-16 32 -24 76 -31 172 -13 172 -12 3056 0 3152 12 89 50 167 99 199 51 35 107
46 204 41 l88 -4 -3 55 -3 56 -90 7 c-49 4 -299 26 -555 48 -256 23 -478 42
-494 43 l-29 2 -206 -695 c-114 -382 -288 -970 -387 -1307 -98 -337 -182 -609
-185 -605 -10 10 -446 1501 -710 2422 -51 179 -96 330 -101 336 -4 6 -43 14
-86 18 -441 39 -2273 254 -3251 382 -271 35 -495 64 -497 64 -2 0 -4 -29 -4
-64 l0 -65 48 -6 c131 -17 198 -48 256 -118 49 -60 75 -123 86 -209 5 -41 10
-427 10 -870 l0 -798 -24 0 c-13 0 -232 16 -487 35 -255 19 -472 35 -482 35
-18 0 -18 31 -14 848 3 571 8 863 16 897 18 81 61 156 110 190 42 29 45 30
162 29 l119 0 0 63 c0 35 -4 63 -9 63 -15 0 -1019 140 -1260 175 -129 19 -236
35 -238 35 -2 0 -3 -31 -3 -69z m3233 -508 c106 -47 172 -148 187 -286 13
-116 22 -3293 11 -3493 -8 -122 -15 -174 -31 -218 -45 -120 -129 -176 -264
-176 -105 0 -149 15 -211 72 -75 68 -94 119 -105 281 -12 170 -12 3430 0 3561
14 163 76 260 182 287 55 14 168 0 231 -28z m1287 -134 c95 -21 172 -88 217
-186 23 -49 25 -71 34 -296 5 -135 8 -898 7 -1727 -3 -1400 -5 -1488 -22
-1545 -41 -137 -98 -214 -198 -267 -35 -19 -58 -23 -128 -23 -100 0 -144 19
-204 86 -62 68 -75 109 -86 276 -12 188 -13 3285 0 3411 23 241 140 324 380
271z m5084 -2339 l172 -535 -95 -3 c-113 -4 -751 15 -758 22 -5 5 402 1236
420 1271 12 23 -8 81 261 -755z m5134 465 c17 -49 110 -316 207 -592 96 -277
175 -506 175 -510 0 -9 -727 -6 -807 3 l-52 5 18 47 c10 26 107 295 217 599
109 303 202 549 205 545 3 -4 20 -47 37 -97z"/>
<path d="M41520 8864 c-372 -54 -1222 -170 -1705 -233 l-370 -47 -3 -63 -3
-63 86 7 c115 10 166 -5 226 -65 26 -26 54 -67 65 -95 18 -49 19 -104 22
-1855 2 -1132 -1 -1846 -7 -1916 -16 -175 -56 -256 -152 -309 -45 -24 -69 -30
-149 -34 l-95 -6 0 -60 0 -60 1245 3 c685 2 1246 4 1247 5 0 1 28 333 62 737
34 404 63 752 66 773 l5 38 -41 -3 -42 -3 -28 -140 c-133 -661 -375 -1018
-759 -1120 -83 -22 -414 -33 -477 -16 -92 25 -148 109 -163 244 -6 45 -10 450
-10 901 l0 819 93 -6 c50 -3 114 -13 142 -23 191 -68 323 -425 367 -994 3 -34
4 -35 43 -35 l40 0 3 1246 2 1245 -42 -5 c-41 -6 -43 -8 -45 -41 -37 -517
-125 -839 -271 -992 -62 -65 -149 -113 -223 -123 -24 -3 -59 -8 -76 -11 l-33
-5 0 948 0 949 193 24 c134 18 241 25 353 25 l160 0 79 -39 c234 -116 353
-360 422 -869 l17 -128 41 3 40 3 3 718 c2 679 1 717 -15 716 -10 -1 -151 -21
-313 -45z"/>
<path d="M39266 8661 c-4 -5 -13 -47 -21 -93 -22 -127 -34 -159 -70 -195 -54
-54 -106 -45 -252 43 -190 116 -302 149 -473 141 -323 -16 -585 -217 -774
-596 -123 -243 -174 -501 -163 -816 8 -241 47 -406 142 -600 71 -146 140 -241
275 -376 135 -136 232 -216 465 -384 301 -216 424 -330 514 -477 188 -305 160
-737 -62 -975 -97 -103 -189 -143 -331 -143 -162 0 -302 65 -443 206 -234 235
-393 598 -469 1074 -9 58 -19 108 -23 111 -3 4 -23 4 -43 2 l-38 -5 0 -809 0
-809 45 0 c30 0 45 4 45 13 0 7 15 44 34 83 37 78 106 148 156 157 43 9 110
-15 213 -76 197 -117 303 -158 452 -177 139 -17 299 9 432 72 234 110 444 378
553 707 153 460 122 1004 -78 1386 -64 122 -144 226 -262 344 -124 124 -236
213 -490 391 -384 268 -459 338 -553 511 -57 103 -71 166 -71 309 0 149 15
218 76 340 164 326 516 392 785 146 207 -189 350 -504 407 -895 8 -57 17 -106
20 -108 3 -3 24 -2 47 2 l42 7 -6 307 c-4 168 -10 505 -13 749 l-7 442 -28 0
c-15 0 -30 -4 -33 -9z"/>
<path d="M35900 8239 c-471 -60 -854 -333 -1133 -804 -160 -270 -275 -603
-318 -920 -13 -94 -29 -135 -29 -73 0 56 -46 291 -79 407 -110 379 -315 707
-560 891 -139 105 -330 185 -514 215 -108 18 -352 20 -463 4 -516 -72 -930
-402 -1195 -954 -141 -293 -212 -603 -226 -975 -23 -640 160 -1221 509 -1620
164 -187 383 -328 613 -395 154 -45 269 -58 460 -51 174 5 240 16 380 60 521
166 922 744 1056 1521 10 61 19 125 19 144 0 58 8 30 25 -84 70 -476 250 -902
508 -1196 193 -221 416 -355 697 -420 124 -29 383 -36 515 -15 461 76 809 386
1056 942 340 766 342 1858 4 2553 -258 530 -633 785 -1145 780 -63 -1 -144 -5
-180 -10z m191 -199 c95 -18 175 -64 254 -143 108 -110 194 -293 259 -553 119
-470 137 -1565 36 -2169 -75 -448 -226 -773 -418 -902 -76 -51 -141 -72 -243
-80 -447 -33 -712 453 -780 1432 -15 225 -6 885 15 1090 54 506 162 852 338
1087 141 186 342 275 539 238z m-2986 -275 c61 -17 157 -74 208 -123 85 -81
173 -246 231 -432 94 -297 133 -724 123 -1335 -9 -529 -47 -813 -147 -1116
-104 -316 -251 -498 -448 -559 -88 -27 -236 -27 -324 0 -216 66 -372 278 -477
645 -148 516 -160 1536 -24 2110 49 209 132 411 224 547 157 230 395 329 634
263z"/>
<path d="M31258 7799 c-59 -5 -295 -20 -525 -34 -229 -14 -419 -27 -420 -29
-2 -2 -118 -361 -257 -797 -400 -1253 -519 -1623 -525 -1631 -4 -4 -105 284
-226 640 -120 356 -301 886 -401 1177 l-181 530 -49 -2 c-27 -2 -224 -10 -439
-19 -214 -8 -457 -19 -540 -22 l-150 -7 -3 -46 -3 -47 103 -4 c117 -5 172 -24
227 -79 71 -71 66 51 69 -1527 3 -1560 5 -1482 -56 -1595 -51 -94 -150 -154
-272 -164 l-70 -6 0 -48 0 -49 495 0 495 0 0 49 0 48 -72 7 c-39 4 -96 17
-127 28 -75 28 -159 112 -192 194 l-24 59 -2 1425 -2 1425 79 -225 c145 -417
736 -2131 886 -2572 147 -432 149 -438 176 -438 27 0 28 3 272 738 134 405
348 1054 474 1442 127 388 264 809 306 935 l75 230 -2 -1500 c-2 -1372 -4
-1504 -19 -1548 -45 -132 -113 -177 -278 -186 l-105 -6 0 -50 0 -50 753 -3
752 -2 0 54 0 53 -97 5 c-114 6 -154 20 -217 78 -88 81 -81 -67 -81 1670 0
1462 1 1538 18 1589 46 135 132 197 293 209 l89 7 3 53 3 52 -63 -1 c-35 -1
-111 -6 -170 -10z"/>
<path d="M26730 7580 c-107 -4 -313 -11 -457 -15 l-263 -7 0 -48 0 -47 74 -6
c141 -12 244 -74 287 -173 50 -111 51 -140 49 -1039 0 -462 -2 -840 -3 -841
-1 -2 -214 319 -472 712 -259 393 -576 873 -705 1066 l-235 353 -165 -3 c-91
-1 -321 -5 -512 -8 l-348 -7 0 -48 c0 -49 0 -49 33 -49 55 0 148 -29 187 -58
46 -33 96 -93 161 -189 l49 -72 0 -1238 c0 -681 -5 -1281 -10 -1333 -20 -211
-83 -317 -216 -364 -39 -13 -45 -13 -91 9 -62 28 -101 75 -162 195 -72 139
-98 206 -490 1282 -772 2115 -701 1928 -726 1928 -16 0 -26 -9 -33 -27 -82
-227 -1070 -2873 -1096 -2937 -123 -296 -218 -417 -368 -466 l-53 -17 -3 -46
-3 -47 480 0 481 0 0 50 0 50 -34 0 c-49 0 -195 29 -226 45 -38 20 -86 77
-101 122 -19 52 -16 173 6 258 14 55 115 349 150 438 7 16 41 17 515 17 474 0
508 -1 515 -17 48 -120 209 -601 214 -642 22 -154 -52 -221 -246 -221 l-83 0
0 -50 0 -50 1091 0 1090 0 -3 48 -3 47 -87 6 c-138 9 -245 75 -297 181 -52
108 -51 96 -49 1354 l3 1166 236 -348 c332 -490 1387 -2067 1555 -2321 l139
-213 43 0 42 0 0 1554 c0 1055 3 1579 11 1632 27 199 98 278 287 323 l77 18 0
49 c0 58 25 54 -235 44z m-4075 -1779 c113 -315 205 -574 205 -577 0 -2 -194
-4 -431 -4 -252 0 -429 4 -427 9 325 883 434 1168 440 1157 4 -7 100 -270 213
-585z"/>
<path d="M18770 7511 l0 -48 49 -6 c68 -8 141 -47 189 -102 55 -63 178 -309
385 -770 96 -214 261 -581 366 -815 l192 -425 -3 -505 -3 -505 -27 -50 c-58
-110 -112 -137 -293 -144 l-130 -6 -3 -47 -3 -48 810 0 811 0 0 50 0 50 -117
0 c-65 0 -135 5 -155 10 -52 15 -119 68 -146 118 -36 64 -42 167 -42 714 l0
497 398 798 c219 439 425 841 457 893 97 156 153 204 273 234 47 12 47 13 50
58 l3 45 -137 6 c-75 4 -276 7 -446 7 l-309 0 3 -47 3 -48 80 -13 c162 -27
240 -88 239 -187 -2 -114 -60 -246 -454 -1037 l-253 -508 -17 38 c-169 373
-552 1230 -582 1300 -92 222 -106 299 -62 351 39 47 60 55 164 61 l95 5 3 46
3 47 -133 6 c-133 5 -1092 26 -1200 26 l-58 0 0 -49z"/>
<path d="M22732 2312 c-135 -48 -217 -169 -229 -339 -10 -133 26 -251 102
-332 70 -74 127 -96 255 -96 89 0 113 4 157 24 62 28 136 103 163 166 68 158
42 375 -56 484 -67 74 -136 104 -248 108 -70 3 -103 -1 -144 -15z"/>
<path d="M24163 2312 c-126 -45 -200 -146 -224 -304 -28 -190 48 -366 189
-435 51 -25 67 -28 162 -28 99 0 109 2 173 33 77 38 123 90 159 180 19 48 22
76 22 177 0 103 -3 129 -23 180 -31 76 -104 155 -174 186 -72 31 -211 37 -284
11z"/>
<path d="M11380 2119 l0 -212 118 5 c163 7 222 35 263 123 35 76 21 174 -34
232 -45 48 -102 63 -234 63 l-113 0 0 -211z"/>
<path d="M13870 2155 l0 -175 94 0 c162 0 250 26 286 86 62 99 19 224 -88 254
-20 5 -94 10 -164 10 l-128 0 0 -175z"/>
<path d="M13870 1715 l0 -176 158 3 c129 2 164 6 195 22 57 28 81 69 85 146 3
55 0 70 -20 100 -42 63 -82 75 -260 78 l-158 3 0 -176z"/>
<path d="M18751 2297 c-1 -10 -41 -123 -91 -251 -49 -128 -90 -235 -90 -239 0
-4 83 -7 185 -7 120 0 185 4 185 10 0 6 -40 115 -89 243 -49 127 -91 239 -94
247 -4 11 -6 11 -6 -3z"/>
<path d="M21188 2324 c-5 -4 -8 -182 -8 -396 l0 -390 173 4 c172 3 173 3 240
36 127 63 187 177 187 358 0 188 -69 307 -215 371 -31 13 -76 18 -205 21 -91
2 -168 0 -172 -4z"/>
<path d="M25430 2141 l0 -191 104 0 c117 0 174 15 220 58 39 37 56 81 56 144
0 70 -25 116 -81 148 -39 22 -58 25 -171 28 l-128 4 0 -191z"/>
<path d="M30410 2140 l0 -190 103 0 c122 0 184 17 232 66 69 68 68 195 0 260
-44 41 -100 54 -229 54 l-106 0 0 -190z"/>
</g>
</svg>
